<svg width="58" height="58" viewBox="0 0 58 58" fill="none" xmlns="http://www.w3.org/2000/svg">
<g filter="url(#filter0_d_174_560)">
<rect x="2" y="2" width="54" height="54" rx="27" fill="#00D4FF"/>
<path d="M20.3985 18.125C20.3985 16.6766 21.5751 15.5 23.0235 15.5C24.472 15.5 25.6485 16.6766 25.6485 18.125C25.6485 19.5734 24.472 20.75 23.0235 20.75C21.5751 20.75 20.3985 19.5734 20.3985 18.125ZM20.0235 26.6234L18.9642 27.6828C18.6829 27.9641 18.5235 28.3438 18.5235 28.7422V30.5C18.5235 31.3297 17.8532 32 17.0235 32C16.1938 32 15.5235 31.3297 15.5235 30.5V28.7422C15.5235 27.5469 15.997 26.4031 16.8407 25.5594L18.486 23.9141C19.5548 22.8453 20.9985 22.2453 22.5079 22.2453C24.2376 22.2453 25.8735 23.0328 26.9517 24.3828L27.7954 25.4375C28.0813 25.7937 28.5126 26 28.9673 26H30.5235C31.3532 26 32.0235 26.6703 32.0235 27.5C32.0235 28.3297 31.3532 29 30.5235 29H28.9673C27.5985 29 26.3095 28.3766 25.4517 27.3125L25.2735 27.0922V32.4922L26.8907 33.8797C27.7204 34.5922 28.2642 35.5766 28.4188 36.6594L29.0095 40.7891C29.1267 41.6094 28.5548 42.3688 27.7345 42.4859C26.9142 42.6031 26.1548 42.0312 26.0376 41.2109L25.447 37.0812C25.3954 36.7203 25.2126 36.3922 24.936 36.1531L21.5938 33.2891C20.5954 32.4359 20.0235 31.1844 20.0235 29.8719V26.6234ZM20.0282 34.3906C20.1407 34.4984 20.2532 34.6062 20.3751 34.7094L22.5313 36.5563L22.4282 36.9125C22.2173 37.6484 21.8235 38.3187 21.2845 38.8578L18.0829 42.0594C17.497 42.6453 16.5454 42.6453 15.9595 42.0594C15.3735 41.4734 15.3735 40.5219 15.9595 39.9359L19.161 36.7344C19.3392 36.5562 19.4704 36.3313 19.5407 36.0875L20.0282 34.3906ZM39.1954 33.1719C38.7548 33.6125 38.0423 33.6125 37.6063 33.1719C37.1704 32.7313 37.1657 32.0188 37.6063 31.5828L39.0595 30.1297H34.2735C33.6501 30.1297 33.1485 29.6281 33.1485 29.0047C33.1485 28.3813 33.6501 27.8797 34.2735 27.8797H39.0595L37.6063 26.4266C37.1657 25.9859 37.1657 25.2734 37.6063 24.8375C38.047 24.4016 38.7595 24.3969 39.1954 24.8375L42.5704 28.2125C43.011 28.6531 43.011 29.3656 42.5704 29.8016L39.1954 33.1766V33.1719Z" fill="#0E0E1F"/>
</g>
<defs>
<filter id="filter0_d_174_560" x="0" y="0" width="58" height="58" filterUnits="userSpaceOnUse" color-interpolation-filters="sRGB">
<feFlood flood-opacity="0" result="BackgroundImageFix"/>
<feColorMatrix in="SourceAlpha" type="matrix" values="0 0 0 0 0 0 0 0 0 0 0 0 0 0 0 0 0 0 127 0" result="hardAlpha"/>
<feOffset/>
<feGaussianBlur stdDeviation="1"/>
<feComposite in2="hardAlpha" operator="out"/>
<feColorMatrix type="matrix" values="0 0 0 0 0 0 0 0 0 0.831373 0 0 0 0 1 0 0 0 1 0"/>
<feBlend mode="normal" in2="BackgroundImageFix" result="effect1_dropShadow_174_560"/>
<feBlend mode="normal" in="SourceGraphic" in2="effect1_dropShadow_174_560" result="shape"/>
</filter>
</defs>
</svg>
