<svg width="47" height="47" viewBox="0 0 47 47" fill="none" xmlns="http://www.w3.org/2000/svg">
<rect width="47" height="47" rx="10" fill="#15152A"/>
<path d="M19.393 13.8872C19.3644 13.7306 19.2747 13.5918 19.1437 13.5014C19.0128 13.4109 18.8512 13.3762 18.6946 13.4048C18.538 13.4335 18.3993 13.5231 18.3088 13.6541C18.2183 13.7851 18.1836 13.9466 18.2122 14.1032L18.223 14.1584C16.1482 14.846 14.9254 15.9464 14.2306 17.174C13.5526 18.374 13.4182 19.634 13.4026 20.6H13.4002V20.6048L12.5962 21.6104C12.4411 21.8045 12.3278 22.0285 12.2635 22.2685C12.1992 22.5085 12.1853 22.7591 12.2226 23.0047C12.2599 23.2504 12.3476 23.4856 12.4803 23.6956C12.613 23.9057 12.7877 24.086 12.9934 24.2252L23.3794 31.2572C24.6701 32.1318 26.1932 32.5995 27.7522 32.6H31.1002C31.4875 32.6 31.8702 32.5168 32.2224 32.3559C32.5746 32.1949 32.8881 31.9601 33.1416 31.6674C33.3951 31.3746 33.5826 31.0308 33.6915 30.6592C33.8004 30.2876 33.828 29.8969 33.7726 29.5136C33.5806 28.1972 32.4682 27.2528 31.3162 26.888C30.5854 26.6552 29.9002 26.2772 29.4994 25.682L25.879 19.454L26.095 19.4204C26.1737 19.4084 26.2492 19.3809 26.3172 19.3395C26.3851 19.298 26.4441 19.2435 26.4908 19.179C26.5375 19.1146 26.5708 19.0414 26.589 18.9639C26.6071 18.8864 26.6096 18.8061 26.5964 18.7276C26.5832 18.6492 26.5545 18.5741 26.512 18.5068C26.4695 18.4395 26.414 18.3814 26.3488 18.3357C26.2836 18.2901 26.21 18.2579 26.1322 18.2409C26.0545 18.224 25.9741 18.2228 25.8958 18.2372C25.5534 18.294 25.2142 18.3216 24.8782 18.32C22.3942 18.3068 20.2006 16.7156 19.5226 14.4296C19.469 14.2515 19.4257 14.0704 19.393 13.8872ZM16.6042 16.2896L19.2382 20.8508C19.3974 21.1263 19.4408 21.4537 19.3586 21.7611C19.2765 22.0685 19.0756 22.3307 18.8002 22.49L17.7526 23.096L14.6002 20.9684V20.816C14.6002 19.8968 14.6986 18.7856 15.2758 17.7644C15.5638 17.2532 15.985 16.7444 16.6054 16.2884M19.1986 24.0704L22.8538 21.9584C22.9904 21.8797 23.1411 21.8286 23.2974 21.8081C23.4537 21.7876 23.6124 21.7982 23.7647 21.8391C23.9169 21.8799 24.0596 21.9504 24.1845 22.0465C24.3095 22.1425 24.4143 22.2623 24.493 22.3988L25.2166 23.6516C25.3757 23.9272 25.4189 24.2548 25.3365 24.5622C25.2541 24.8696 25.053 25.1317 24.7774 25.2908L22.747 26.4632L19.1986 24.0704ZM27.7894 30.2H32.5702C32.431 30.884 31.8262 31.4 31.1002 31.4H27.7522C26.4329 31.4 25.1438 31.0046 24.0514 30.2648L13.6666 23.2316C13.5981 23.1852 13.54 23.1251 13.4958 23.0551C13.4517 22.9851 13.4225 22.9067 13.4101 22.8249C13.3977 22.7431 13.4024 22.6596 13.4238 22.5796C13.4452 22.4997 13.483 22.4251 13.5346 22.3604L13.8778 21.9284L24.769 29.276C25.6612 29.8782 26.713 30.1999 27.7894 30.2Z" fill="#EBEBF5"/>
</svg>
