<svg width="47" height="47" viewBox="0 0 47 47" fill="none" xmlns="http://www.w3.org/2000/svg">
<rect width="47" height="47" rx="10" fill="#15152A"/>
<path d="M24.2186 12.2C25.3774 12.2 26.3186 13.1413 26.3186 14.3C26.3186 15.4588 25.3774 16.4 24.2186 16.4C23.0599 16.4 22.1186 15.4588 22.1186 14.3C22.1186 13.1413 23.0599 12.2 24.2186 12.2ZM19.2349 20C19.1111 20 19.0024 20.075 18.9574 20.1875L18.1324 22.2463C17.8849 22.8613 17.1874 23.1613 16.5724 22.9138C15.9574 22.6663 15.6574 21.9688 15.9049 21.3538L16.7261 19.295C17.1386 18.2713 18.1286 17.6 19.2349 17.6H22.8836C23.9524 17.6 24.9386 18.1663 25.4749 19.0888L26.7049 21.2H29.0149C29.6786 21.2 30.2149 21.7363 30.2149 22.4C30.2149 23.0638 29.6786 23.6 29.0149 23.6H26.7049C25.8499 23.6 25.0624 23.1463 24.6311 22.4075L24.2561 21.7663L23.4799 24.4063L26.3074 25.2538C27.3461 25.565 27.8749 26.7163 27.4361 27.71L25.3136 32.4875C25.0436 33.095 24.3349 33.365 23.7311 33.095C23.1274 32.825 22.8536 32.1163 23.1236 31.5125L24.9686 27.3575L21.3724 26.2775C20.1461 25.91 19.4224 24.6388 19.7336 23.3975L20.5849 20H19.2386H19.2349ZM18.9349 26.7875C19.4336 27.3463 20.0861 27.7738 20.8549 28.0025L21.0311 28.055L20.7724 28.7788C20.5549 29.39 20.1724 29.9338 19.6736 30.3463L16.5836 32.8925C16.0736 33.3125 15.3161 33.2413 14.8961 32.7313C14.4761 32.2213 14.5474 31.4638 15.0574 31.0438L18.1474 28.4975C18.3161 28.3588 18.4399 28.1788 18.5149 27.9763L18.9349 26.7875Z" fill="#EBEBF5"/>
</svg>
