<svg width="47" height="47" viewBox="0 0 47 47" fill="none" xmlns="http://www.w3.org/2000/svg">
<rect width="47" height="47" rx="10" fill="#15152A"/>
<path d="M23 16.4C24.1587 16.4 25.1 15.4588 25.1 14.3C25.1 13.1413 24.1587 12.2 23 12.2C21.8412 12.2 20.9 13.1413 20.9 14.3C20.9 15.4588 21.8412 16.4 23 16.4ZM19.7525 21.9463L20.6 21.0988V23.6975C20.6 24.7475 21.0575 25.7488 21.8562 26.4313L24.5337 28.7263C24.755 28.9175 24.9012 29.18 24.9425 29.4688L25.415 32.7725C25.5087 33.4288 26.1163 33.8863 26.7725 33.7925C27.4288 33.6988 27.8862 33.0913 27.7925 32.435L27.32 29.1313C27.1962 28.265 26.7612 27.4775 26.0975 26.9075L24.8037 25.7975V21.4775L24.9462 21.6538C25.6287 22.5088 26.6637 23.0038 27.7587 23.0038H29.0037C29.6675 23.0038 30.2037 22.4675 30.2037 21.8038C30.2037 21.14 29.6675 20.6038 29.0037 20.6038H27.7587C27.395 20.6038 27.05 20.4388 26.8212 20.1538L26.15 19.3138C25.2875 18.2338 23.9788 17.6038 22.595 17.6038C21.3875 17.6038 20.2287 18.0838 19.3775 18.9388L18.0538 20.2475C17.3788 20.9225 17 21.8375 17 22.7938V24.2C17 24.8638 17.5362 25.4 18.2 25.4C18.8637 25.4 19.4 24.8638 19.4 24.2V22.7938C19.4 22.475 19.5275 22.1713 19.7525 21.9463ZM20.2175 28.6738C20.1612 28.8688 20.0562 29.0488 19.9137 29.1913L17.3525 31.7525C16.8837 32.2213 16.8837 32.9825 17.3525 33.4513C17.8212 33.92 18.5825 33.92 19.0512 33.4513L21.6125 30.89C22.0437 30.4588 22.3587 29.9225 22.5275 29.3338L22.61 29.0488L20.885 27.5713C20.7912 27.4888 20.6975 27.4063 20.6075 27.3163L20.2175 28.6738Z" fill="#EBEBF5"/>
</svg>
