<svg width="47" height="47" viewBox="0 0 47 47" fill="none" xmlns="http://www.w3.org/2000/svg">
<rect width="47" height="47" rx="10" fill="#15152A"/>
<path d="M26.2499 17.5C26.8466 17.5 27.4189 17.2629 27.8409 16.841C28.2628 16.419 28.4999 15.8467 28.4999 15.25C28.4999 14.6533 28.2628 14.081 27.8409 13.659C27.4189 13.2371 26.8466 13 26.2499 13C25.6532 13 25.0809 13.2371 24.6589 13.659C24.2369 14.081 23.9999 14.6533 23.9999 15.25C23.9999 15.8467 24.2369 16.419 24.6589 16.841C25.0809 17.2629 25.6532 17.5 26.2499 17.5ZM21.7299 19.641C21.1064 19.796 20.6809 20.029 20.3374 20.318C19.8224 20.752 19.4064 21.378 18.8444 22.362C18.7128 22.5923 18.4951 22.7608 18.2392 22.8306C17.9833 22.9004 17.7102 22.8656 17.4799 22.734C17.2496 22.6024 17.0811 22.3847 17.0113 22.1288C16.9415 21.8729 16.9763 21.5998 17.1079 21.3695C17.6674 20.391 18.2329 19.4755 19.0494 18.7885C19.9014 18.0705 20.9444 17.6645 22.3509 17.508C22.9389 17.443 23.5859 17.456 24.1924 17.7265C24.8289 18.011 25.2939 18.5205 25.6109 19.2015C26.0379 20.118 26.3554 20.6635 26.6094 20.98C26.7319 21.1315 26.8174 21.202 26.8659 21.2335C26.9044 21.2585 26.9209 21.2605 26.9269 21.2615C26.9704 21.2665 27.1119 21.2615 27.5259 21.078C27.7064 20.998 27.9034 20.902 28.1444 20.7845L28.2019 20.7565C28.4966 20.6111 28.794 20.4711 29.0939 20.3365C29.336 20.2302 29.6103 20.2241 29.8569 20.3196C30.1035 20.4151 30.3022 20.6043 30.4096 20.8459C30.517 21.0875 30.5244 21.3618 30.4301 21.6088C30.3358 21.8558 30.1475 22.0555 29.9064 22.164C29.6285 22.2887 29.3529 22.4185 29.0799 22.5535L29.0144 22.5855C28.7839 22.698 28.5519 22.8115 28.3344 22.9075C27.8844 23.1065 27.3094 23.3225 26.6859 23.247C26.0279 23.167 25.5209 22.7955 25.1034 22.297L23.7369 24.9335L25.6269 27.3925C25.7396 27.5393 25.8093 27.7144 25.8284 27.8985L26.2444 31.8965C26.2602 32.0282 26.2497 32.1618 26.2134 32.2894C26.1772 32.417 26.1159 32.5361 26.0331 32.6398C25.9503 32.7435 25.8477 32.8297 25.7313 32.8933C25.6149 32.957 25.487 32.9969 25.3551 33.0106C25.2231 33.0243 25.0897 33.0117 24.9627 32.9733C24.8357 32.935 24.7176 32.8718 24.6152 32.7874C24.5129 32.703 24.4284 32.599 24.3666 32.4816C24.3048 32.3642 24.267 32.2357 24.2554 32.1035L23.8684 28.387L22.7204 26.893L22.7104 26.9115L22.6684 26.8255L20.5474 24.0655C20.4431 23.9298 20.3754 23.7697 20.3507 23.6004C20.326 23.4311 20.3452 23.2583 20.4064 23.0985L21.7299 19.641Z" fill="#EBEBF5"/>
<path d="M20.2158 25.5035L19.4798 27.4835L16.5798 27.2535C16.4479 27.2412 16.315 27.2553 16.1886 27.2949C16.0622 27.3344 15.945 27.3987 15.8436 27.4839C15.7423 27.5691 15.6589 27.6737 15.5983 27.7914C15.5376 27.9091 15.501 28.0377 15.4905 28.1697C15.4799 28.3017 15.4957 28.4345 15.5369 28.5603C15.5781 28.6861 15.6439 28.8026 15.7305 28.9028C15.817 29.003 15.9226 29.085 16.0411 29.1441C16.1596 29.2032 16.2886 29.2382 16.4208 29.247L20.0748 29.537C20.2916 29.5542 20.5082 29.5003 20.6916 29.3834C20.8751 29.2664 21.0154 29.0929 21.0913 28.889L21.6538 27.375L20.2158 25.5035Z" fill="#EBEBF5"/>
</svg>
