<svg width="89" height="89" viewBox="0 0 89 89" fill="none" xmlns="http://www.w3.org/2000/svg">
<g filter="url(#filter0_d_186_498)">
<rect x="6" y="6" width="77" height="77" rx="15" fill="#1C1C2E"/>
<rect x="6.5" y="6.5" width="76" height="76" rx="14.5" stroke="#00D4FF"/>
<g clip-path="url(#clip0_186_498)">
<path d="M58.0624 43.4167V33C58.0624 29.2704 56.5808 25.6935 53.9436 23.0563C51.3064 20.4191 47.7295 18.9375 43.9999 18.9375C40.2703 18.9375 36.6935 20.4191 34.0562 23.0563C31.419 25.6935 29.9374 29.2704 29.9374 33V43.4167C28.3345 45.9364 27.4381 48.8405 27.3419 51.8253C27.2457 54.8101 27.9532 57.7659 29.3905 60.3836C30.8278 63.0014 32.942 65.1848 35.512 66.7057C38.0821 68.2266 41.0136 69.0289 43.9999 69.0289C46.9863 69.0289 49.9177 68.2266 52.4878 66.7057C55.0579 65.1848 57.1721 63.0014 58.6094 60.3836C60.0466 57.7659 60.7542 54.8101 60.6579 51.8253C60.5617 48.8405 59.6653 45.9364 58.0624 43.4167ZM43.9999 56.5C43.1758 56.5 42.3702 56.2556 41.685 55.7978C40.9998 55.34 40.4658 54.6892 40.1504 53.9278C39.8351 53.1665 39.7525 52.3287 39.9133 51.5205C40.0741 50.7122 40.4709 49.9698 41.0536 49.3871C41.6364 48.8043 42.3788 48.4075 43.187 48.2467C43.9953 48.086 44.8331 48.1685 45.5944 48.4838C46.3558 48.7992 47.0065 49.3333 47.4644 50.0185C47.9222 50.7037 48.1666 51.5092 48.1666 52.3333C48.1666 53.4384 47.7276 54.4982 46.9462 55.2796C46.1648 56.061 45.105 56.5 43.9999 56.5ZM52.8541 36.4583C52.8513 36.6373 52.8041 36.8129 52.7169 36.9692C52.6296 37.1255 52.505 37.2578 52.3541 37.3542C52.2021 37.4419 52.0296 37.4881 51.8541 37.4881C51.6786 37.4881 51.5061 37.4419 51.3541 37.3542C49.0694 36.2167 46.5521 35.6246 43.9999 35.6246C41.4478 35.6246 38.9304 36.2167 36.6458 37.3542C36.4937 37.4419 36.3213 37.4881 36.1458 37.4881C35.9702 37.4881 35.7978 37.4419 35.6458 37.3542C35.4949 37.2578 35.3702 37.1255 35.283 36.9692C35.1957 36.8129 35.1486 36.6373 35.1458 36.4583V33.0625C35.1458 30.7142 36.0786 28.4621 37.7391 26.8017C39.3996 25.1412 41.6516 24.2083 43.9999 24.2083C46.3482 24.2083 48.6003 25.1412 50.2608 26.8017C51.9212 28.4621 52.8541 30.7142 52.8541 33.0625V36.4583Z" fill="#00D4FF"/>
</g>
</g>
<defs>
<filter id="filter0_d_186_498" x="0" y="0" width="89" height="89" filterUnits="userSpaceOnUse" color-interpolation-filters="sRGB">
<feFlood flood-opacity="0" result="BackgroundImageFix"/>
<feColorMatrix in="SourceAlpha" type="matrix" values="0 0 0 0 0 0 0 0 0 0 0 0 0 0 0 0 0 0 127 0" result="hardAlpha"/>
<feOffset/>
<feGaussianBlur stdDeviation="3"/>
<feComposite in2="hardAlpha" operator="out"/>
<feColorMatrix type="matrix" values="0 0 0 0 0 0 0 0 0 0.831373 0 0 0 0 1 0 0 0 1 0"/>
<feBlend mode="normal" in2="BackgroundImageFix" result="effect1_dropShadow_186_498"/>
<feBlend mode="normal" in="SourceGraphic" in2="effect1_dropShadow_186_498" result="shape"/>
</filter>
<clipPath id="clip0_186_498">
<rect width="50" height="50" fill="white" transform="translate(19 19)"/>
</clipPath>
</defs>
</svg>
