<svg width="47" height="47" viewBox="0 0 47 47" fill="none" xmlns="http://www.w3.org/2000/svg">
<rect width="47" height="47" rx="10" fill="#15152A"/>
<path d="M24 19C26.1217 19 28.1566 19.8429 29.6569 21.3432C31.1571 22.8435 32 24.8783 32 27C32 29.1218 31.1571 31.1566 29.6569 32.6569C28.1566 34.1572 26.1217 35 24 35C21.8783 35 19.8434 34.1572 18.3431 32.6569C16.8429 31.1566 16 29.1218 16 27C16 24.8783 16.8429 22.8435 18.3431 21.3432C19.8434 19.8429 21.8783 19 24 19ZM24 22.5L22.678 25.18L19.72 25.61L21.86 27.695L21.355 30.641L24 29.25L26.645 30.64L26.14 27.695L28.28 25.609L25.322 25.179L24 22.5ZM25 13.999L30 14V17L28.637 18.138C27.5062 17.5441 26.2712 17.1747 25 17.05V13.999ZM23 13.999V17.049C21.7292 17.1738 20.4945 17.5433 19.364 18.137L18 17V14L23 13.999Z" fill="#EBEBF5"/>
</svg>
