<svg width="40" height="40" viewBox="0 0 40 40" fill="none" xmlns="http://www.w3.org/2000/svg">
<path fill-rule="evenodd" clip-rule="evenodd" d="M40 20C40 14.6957 37.8929 9.60859 34.1421 5.85786C30.3914 2.10714 25.3043 0 20 0C14.6957 0 9.60859 2.10714 5.85786 5.85786C2.10714 9.60859 0 14.6957 0 20C0 25.3043 2.10714 30.3914 5.85786 34.1421C9.60859 37.8929 14.6957 40 20 40C25.3043 40 30.3914 37.8929 34.1421 34.1421C37.8929 30.3914 40 25.3043 40 20ZM29.8286 14.1486C29.8286 15.7629 28.5229 17.0714 26.9086 17.0743H26.9029C26.1423 17.0517 25.4204 16.7339 24.8901 16.1883C24.3597 15.6428 24.0625 14.9122 24.0614 14.1513C24.0603 13.3904 24.3553 12.659 24.8841 12.1118C25.4129 11.5647 26.1338 11.2449 26.8943 11.22H26.9029C28.5171 11.22 29.8286 12.5314 29.8286 14.1486ZM16.0257 14.1486C16.0257 15.7629 14.72 17.0714 13.1057 17.0743H13.0971C12.3366 17.0513 11.6149 16.7332 11.0848 16.1873C10.5547 15.6415 10.2579 14.9108 10.2571 14.1499C10.2564 13.389 10.5518 12.6577 11.0808 12.1109C11.6099 11.564 12.3309 11.2445 13.0914 11.22H13.0971C14.7143 11.22 16.0257 12.5314 16.0257 14.1486ZM11.9686 22.1714C11.9152 21.937 11.8151 21.7157 11.6742 21.5209C11.5332 21.3261 11.3544 21.1618 11.1484 21.0377C10.9424 20.9137 10.7135 20.8326 10.4754 20.7992C10.2373 20.7658 9.99487 20.7808 9.76271 20.8434C9.53055 20.906 9.31341 21.0148 9.12433 21.1633C8.93524 21.3118 8.77809 21.497 8.66231 21.7077C8.54653 21.9184 8.4745 22.1504 8.45053 22.3896C8.42657 22.6289 8.45117 22.8705 8.52286 23.1C9.2045 25.6239 10.6987 27.8528 12.7743 29.4423C14.85 31.0317 17.3914 31.893 20.0057 31.893C22.62 31.893 25.1615 31.0317 27.2371 29.4423C29.3128 27.8528 30.8069 25.6239 31.4886 23.1C31.5506 22.8732 31.5673 22.6364 31.5376 22.4032C31.5079 22.17 31.4325 21.9449 31.3156 21.7409C31.1987 21.5369 31.0426 21.358 30.8564 21.2144C30.6702 21.0709 30.4575 20.9655 30.2305 20.9044C30.0034 20.8433 29.7666 20.8276 29.5335 20.8582C29.3004 20.8888 29.0756 20.9652 28.8721 21.0829C28.6685 21.2007 28.4903 21.3574 28.3475 21.5442C28.2047 21.731 28.1002 21.9442 28.04 22.1714C27.5626 23.9369 26.517 25.4959 25.0647 26.6076C23.6125 27.7193 21.8346 28.3217 20.0057 28.3217C18.1768 28.3217 16.3989 27.7193 14.9467 26.6076C13.4945 25.4959 12.446 23.9369 11.9686 22.1714Z" fill="#EBEBF5" fill-opacity="0.6"/>
</svg>
