<svg width="62" height="62" viewBox="0 0 62 62" fill="none" xmlns="http://www.w3.org/2000/svg">
<g filter="url(#filter0_d_186_485)">
<rect x="6" y="6" width="50" height="50" rx="25" fill="#00D4FF"/>
<path d="M27.7425 22.0075C27.7126 21.8444 27.6192 21.6998 27.4828 21.6056C27.3463 21.5114 27.1781 21.4752 27.015 21.505C26.8518 21.5349 26.7073 21.6283 26.613 21.7647C26.5188 21.9011 26.4826 22.0694 26.5125 22.2325L26.5237 22.29C24.3625 23.0063 23.0887 24.1525 22.365 25.4313C21.6587 26.6813 21.5187 27.9938 21.5025 29H21.5V29.005L20.6625 30.0525C20.5009 30.2546 20.3828 30.488 20.3159 30.738C20.2489 30.988 20.2344 31.2491 20.2732 31.5049C20.3121 31.7608 20.4035 32.0058 20.5417 32.2246C20.6799 32.4434 20.8619 32.6312 21.0762 32.7763L31.895 40.1013C33.2394 41.0123 34.8259 41.4995 36.45 41.5H39.9375C40.3408 41.5 40.7395 41.4133 41.1064 41.2457C41.4733 41.0781 41.7998 40.8335 42.0639 40.5285C42.3279 40.2236 42.5233 39.8654 42.6367 39.4783C42.7501 39.0912 42.7789 38.6842 42.7212 38.285C42.5212 36.9138 41.3625 35.93 40.1625 35.55C39.4012 35.3075 38.6875 34.9138 38.27 34.2938L34.4987 27.8063L34.7237 27.7713C34.8057 27.7588 34.8843 27.7301 34.9551 27.687C35.0259 27.6438 35.0874 27.587 35.136 27.5198C35.1846 27.4527 35.2193 27.3765 35.2382 27.2958C35.2571 27.2151 35.2597 27.1314 35.246 27.0496C35.2322 26.9679 35.2023 26.8897 35.158 26.8196C35.1138 26.7495 35.056 26.6889 34.9881 26.6414C34.9202 26.5938 34.8435 26.5603 34.7624 26.5427C34.6814 26.525 34.5977 26.5237 34.5162 26.5388C34.1595 26.5979 33.8062 26.6267 33.4562 26.625C30.8687 26.6113 28.5837 24.9538 27.8775 22.5725C27.8215 22.387 27.7765 22.1983 27.7425 22.0075ZM24.8375 24.51L27.5812 29.2613C27.7471 29.5482 27.7922 29.8893 27.7066 30.2095C27.621 30.5297 27.4118 30.8028 27.125 30.9688L26.0337 31.6L22.75 29.3838V29.225C22.75 28.2675 22.8525 27.11 23.4537 26.0463C23.7537 25.5138 24.1925 24.9838 24.8387 24.5088M27.54 32.615L31.3475 30.415C31.4897 30.333 31.6467 30.2798 31.8095 30.2585C31.9723 30.2371 32.1377 30.2481 32.2962 30.2907C32.4548 30.3333 32.6034 30.4067 32.7336 30.5067C32.8638 30.6068 32.973 30.7315 33.055 30.8738L33.8087 32.1788C33.9745 32.4659 34.0194 32.8071 33.9336 33.1273C33.8478 33.4475 33.6383 33.7205 33.3512 33.8863L31.2362 35.1075L27.54 32.615ZM36.4887 39H41.4687C41.3237 39.7125 40.6937 40.25 39.9375 40.25H36.45C35.0756 40.25 33.7329 39.8381 32.595 39.0675L21.7775 31.7413C21.7061 31.6929 21.6455 31.6303 21.5995 31.5574C21.5536 31.4845 21.5232 31.4028 21.5102 31.3176C21.4973 31.2324 21.5022 31.1454 21.5245 31.0621C21.5468 30.9789 21.5861 30.9011 21.64 30.8338L21.9975 30.3838L33.3425 38.0375C34.2718 38.6648 35.3675 38.9999 36.4887 39Z" fill="#0E0E1F"/>
</g>
<defs>
<filter id="filter0_d_186_485" x="0" y="0" width="62" height="62" filterUnits="userSpaceOnUse" color-interpolation-filters="sRGB">
<feFlood flood-opacity="0" result="BackgroundImageFix"/>
<feColorMatrix in="SourceAlpha" type="matrix" values="0 0 0 0 0 0 0 0 0 0 0 0 0 0 0 0 0 0 127 0" result="hardAlpha"/>
<feOffset/>
<feGaussianBlur stdDeviation="3"/>
<feComposite in2="hardAlpha" operator="out"/>
<feColorMatrix type="matrix" values="0 0 0 0 0 0 0 0 0 0.498824 0 0 0 0 0.6 0 0 0 0.3 0"/>
<feBlend mode="normal" in2="BackgroundImageFix" result="effect1_dropShadow_186_485"/>
<feBlend mode="normal" in="SourceGraphic" in2="effect1_dropShadow_186_485" result="shape"/>
</filter>
</defs>
</svg>
