<svg width="47" height="47" viewBox="0 0 47 47" fill="none" xmlns="http://www.w3.org/2000/svg">
<rect width="47" height="47" rx="10" fill="#15152A"/>
<path fill-rule="evenodd" clip-rule="evenodd" d="M25.2321 13.36C25.8641 12.602 27.0951 13.12 26.9951 14.102L26.2891 21H32.0001C32.1901 21.0001 32.3762 21.0543 32.5365 21.1563C32.6968 21.2583 32.8248 21.4038 32.9054 21.5759C32.9859 21.748 33.0158 21.9395 32.9915 22.1279C32.9672 22.3164 32.8897 22.494 32.7681 22.64L22.7681 34.64C22.1361 35.398 20.9051 34.88 21.0051 33.898L21.7111 27H16.0001C15.8101 26.9999 15.624 26.9457 15.4637 26.8437C15.3034 26.7417 15.1755 26.5962 15.0949 26.4241C15.0143 26.252 14.9844 26.0605 15.0087 25.8721C15.033 25.6836 15.1105 25.506 15.2321 25.36L25.2321 13.36Z" fill="#EBEBF5"/>
</svg>
