<svg width="47" height="47" viewBox="0 0 47 47" fill="none" xmlns="http://www.w3.org/2000/svg">
<rect width="47" height="47" rx="10" fill="#15152A"/>
<path d="M21 14C20.7167 14 20.4793 13.904 20.288 13.712C20.0967 13.52 20.0007 13.2827 20 13C19.9993 12.7173 20.0953 12.48 20.288 12.288C20.4807 12.096 20.718 12 21 12H25C25.2833 12 25.521 12.096 25.713 12.288C25.905 12.48 26.0007 12.7173 26 13C25.9993 13.2827 25.9033 13.5203 25.712 13.713C25.5207 13.9057 25.2833 14.0013 25 14H21ZM23 25C23.2833 25 23.521 24.904 23.713 24.712C23.905 24.52 24.0007 24.2827 24 24V20C24 19.7167 23.904 19.4793 23.712 19.288C23.52 19.0967 23.2827 19.0007 23 19C22.7173 18.9993 22.48 19.0953 22.288 19.288C22.096 19.4807 22 19.718 22 20V24C22 24.2833 22.096 24.521 22.288 24.713C22.48 24.905 22.7173 25.0007 23 25ZM23 33C21.7667 33 20.604 32.7627 19.512 32.288C18.42 31.8133 17.466 31.1673 16.65 30.35C15.834 29.5327 15.1883 28.5783 14.713 27.487C14.2377 26.3957 14 25.2333 14 24C14 22.7667 14.2377 21.604 14.713 20.512C15.1883 19.42 15.834 18.466 16.65 17.65C17.466 16.834 18.4203 16.1883 19.513 15.713C20.6057 15.2377 21.768 15 23 15C24.0333 15 25.025 15.1667 25.975 15.5C26.925 15.8333 27.8167 16.3167 28.65 16.95L29.35 16.25C29.5333 16.0667 29.7667 15.975 30.05 15.975C30.3333 15.975 30.5667 16.0667 30.75 16.25C30.9333 16.4333 31.025 16.6667 31.025 16.95C31.025 17.2333 30.9333 17.4667 30.75 17.65L30.05 18.35C30.6833 19.1833 31.1667 20.075 31.5 21.025C31.8333 21.975 32 22.9667 32 24C32 25.2333 31.7623 26.396 31.287 27.488C30.8117 28.58 30.166 29.534 29.35 30.35C28.534 31.166 27.5797 31.812 26.487 32.288C25.3943 32.764 24.232 33.0013 23 33Z" fill="#EBEBF5"/>
</svg>
