<svg width="47" height="47" viewBox="0 0 47 47" fill="none" xmlns="http://www.w3.org/2000/svg">
<rect width="47" height="47" rx="10" fill="#15152A"/>
<path d="M28.317 15.923C29.625 15.923 30.7327 16.4243 31.64 17.427C32.5473 18.4296 33.0007 19.6396 33 21.057C33 21.3836 32.9737 21.7086 32.921 22.032C32.8683 22.3553 32.7813 22.678 32.66 23H27.525L25.825 20.45C25.7417 20.3166 25.625 20.2083 25.475 20.125C25.325 20.0416 25.1667 20 25 20C24.7833 20 24.5877 20.0666 24.413 20.2C24.2383 20.3333 24.1173 20.5 24.05 20.7L22.7 24.75L21.825 23.45C21.7417 23.3166 21.625 23.2083 21.475 23.125C21.325 23.0416 21.1667 23 21 23H15.34C15.2187 22.6913 15.1317 22.375 15.079 22.051C15.0263 21.727 15 21.4043 15 21.083C15 19.6476 15.4493 18.429 16.348 17.427C17.2467 16.425 18.35 15.9236 19.658 15.923C20.342 15.923 21 16.0623 21.632 16.341C22.2633 16.619 22.8283 17.022 23.327 17.55L24 18.262L24.635 17.589C25.1423 17.0476 25.715 16.6346 26.353 16.35C26.991 16.0653 27.6457 15.923 28.317 15.923ZM24 32.019C23.8413 32.019 23.682 31.9873 23.522 31.924C23.362 31.8606 23.2253 31.7653 23.112 31.638L16.796 25.298C16.7473 25.2493 16.7007 25.2006 16.656 25.152C16.6113 25.1033 16.566 25.0526 16.52 25H20.45L22.15 27.55C22.2333 27.6833 22.35 27.7916 22.5 27.875C22.65 27.9583 22.8083 28 22.975 28C23.1917 28 23.3917 27.9333 23.575 27.8C23.7583 27.6666 23.8833 27.5 23.95 27.3L25.3 23.25L26.15 24.55C26.25 24.6833 26.375 24.7916 26.525 24.875C26.675 24.9583 26.8333 25 27 25H31.473L31.339 25.146L31.204 25.292L24.864 31.639C24.7367 31.7656 24.6007 31.8606 24.456 31.924C24.3113 31.9873 24.1593 32.019 24 32.019Z" fill="#EBEBF5"/>
</svg>
