<svg width="15" height="11" viewBox="0 0 15 11" fill="none" xmlns="http://www.w3.org/2000/svg">
<path d="M0 10.5V6C0 5.6625 0.0687501 5.35625 0.20625 5.08125C0.34375 4.80625 0.525 4.5625 0.75 4.35V2.25C0.75 1.625 0.96875 1.09375 1.40625 0.65625C1.84375 0.21875 2.375 0 3 0H6C6.2875 0 6.55625 0.0532499 6.80625 0.15975C7.05625 0.26625 7.2875 0.413 7.5 0.6C7.7125 0.4125 7.94375 0.26575 8.19375 0.15975C8.44375 0.0537499 8.7125 0.0005 9 0H12C12.625 0 13.1563 0.21875 13.5938 0.65625C14.0312 1.09375 14.25 1.625 14.25 2.25V4.35C14.475 4.5625 14.6563 4.80625 14.7938 5.08125C14.9313 5.35625 15 5.6625 15 6V10.5H13.5V9H1.5V10.5H0ZM8.25 3.75H12.75V2.25C12.75 2.0375 12.678 1.8595 12.534 1.716C12.39 1.5725 12.212 1.5005 12 1.5H9C8.7875 1.5 8.6095 1.572 8.466 1.716C8.3225 1.86 8.2505 2.038 8.25 2.25V3.75ZM2.25 3.75H6.75V2.25C6.75 2.0375 6.678 1.8595 6.534 1.716C6.39 1.5725 6.212 1.5005 6 1.5H3C2.7875 1.5 2.6095 1.572 2.466 1.716C2.3225 1.86 2.2505 2.038 2.25 2.25V3.75Z" fill="#00D4FF"/>
</svg>
