<svg width="17" height="26" viewBox="0 0 17 26" fill="none" xmlns="http://www.w3.org/2000/svg">
<path d="M11.5633 5.625C12.3092 5.625 13.0246 5.32868 13.552 4.80124C14.0795 4.27379 14.3758 3.55842 14.3758 2.8125C14.3758 2.06658 14.0795 1.35121 13.552 0.823762C13.0246 0.296316 12.3092 0 11.5633 0C10.8174 0 10.102 0.296316 9.57453 0.823762C9.04709 1.35121 8.75077 2.06658 8.75077 2.8125C8.75077 3.55842 9.04709 4.27379 9.57453 4.80124C10.102 5.32868 10.8174 5.625 11.5633 5.625ZM7.97952 5.62375C6.11077 5.36125 1.83952 6.12 0.0795212 10.8113C-0.0368425 11.1217 -0.0251074 11.4657 0.112146 11.7675C0.249399 12.0693 0.500927 12.3043 0.811396 12.4206C1.12187 12.537 1.46584 12.5253 1.76766 12.388C2.06948 12.2507 2.30441 11.9992 2.42077 11.6887C3.15077 9.745 4.46577 8.79375 5.63827 8.37L4.17577 12.1275C4.1516 12.19 4.13285 12.2525 4.11952 12.315C4.05961 12.5071 4.04696 12.7108 4.08265 12.9089C4.11834 13.1069 4.20131 13.2934 4.32452 13.4525L8.77702 19.2113L9.06577 23.8275C9.07399 23.9927 9.11494 24.1547 9.18623 24.304C9.25752 24.4533 9.35775 24.587 9.48109 24.6973C9.60443 24.8075 9.74844 24.8922 9.90476 24.9464C10.0611 25.0006 10.2266 25.0232 10.3917 25.013C10.5569 25.0027 10.7183 24.9598 10.8667 24.8867C11.0151 24.8135 11.1476 24.7117 11.2563 24.587C11.365 24.4623 11.448 24.3172 11.5002 24.1603C11.5525 24.0033 11.5731 23.8375 11.5608 23.6725L11.2233 18.2887L8.60827 14.905L10.3245 11.5787L10.4408 11.7463C10.7663 12.2192 11.2446 12.5658 11.7955 12.7276C12.3464 12.8894 12.9362 12.8567 13.4658 12.635L16.1095 11.5275C16.4077 11.3943 16.6419 11.1498 16.762 10.8462C16.8822 10.5426 16.8788 10.204 16.7526 9.90291C16.6263 9.60178 16.3873 9.36199 16.0865 9.23484C15.7858 9.10769 15.4472 9.10326 15.1433 9.2225L12.4995 10.33L10.492 7.41125C10.0297 6.61095 9.29156 6.00657 8.41577 5.71125C8.27427 5.66354 8.12724 5.63413 7.97827 5.62375" fill="#EBEBF5" fill-opacity="0.6"/>
</svg>
