<svg width="23" height="23" viewBox="0 0 23 23" fill="none" xmlns="http://www.w3.org/2000/svg">
<path d="M5 22.5V20H10V16.125C8.97917 15.8958 8.06792 15.4637 7.26625 14.8287C6.46458 14.1937 5.87583 13.3967 5.5 12.4375C3.9375 12.25 2.63042 11.5679 1.57875 10.3912C0.527083 9.21458 0.000833333 7.83417 0 6.25V5C0 4.3125 0.245 3.72417 0.735 3.235C1.225 2.74583 1.81333 2.50083 2.5 2.5H5V0H17.5V2.5H20C20.6875 2.5 21.2763 2.745 21.7663 3.235C22.2563 3.725 22.5008 4.31333 22.5 5V6.25C22.5 7.83333 21.9737 9.21375 20.9212 10.3912C19.8687 11.5687 18.5617 12.2508 17 12.4375C16.625 13.3958 16.0367 14.1929 15.235 14.8287C14.4333 15.4646 13.5217 15.8967 12.5 16.125V20H17.5V22.5H5ZM5 9.75V5H2.5V6.25C2.5 7.04167 2.72917 7.75542 3.1875 8.39125C3.64583 9.02708 4.25 9.48 5 9.75ZM17.5 9.75C18.25 9.47917 18.8542 9.02583 19.3125 8.39C19.7708 7.75417 20 7.04083 20 6.25V5H17.5V9.75Z" fill="#EBEBF5" fill-opacity="0.6"/>
</svg>
