<svg width="19" height="26" viewBox="0 0 19 26" fill="none" xmlns="http://www.w3.org/2000/svg">
<path d="M13.4379 5.625C14.1838 5.625 14.8992 5.32868 15.4266 4.80124C15.9541 4.27379 16.2504 3.55842 16.2504 2.8125C16.2504 2.06658 15.9541 1.35121 15.4266 0.823762C14.8992 0.296316 14.1838 0 13.4379 0C12.692 0 11.9766 0.296316 11.4492 0.823762C10.9217 1.35121 10.6254 2.06658 10.6254 2.8125C10.6254 3.55842 10.9217 4.27379 11.4492 4.80124C11.9766 5.32868 12.692 5.625 13.4379 5.625ZM9.85416 5.62375C7.9854 5.36125 3.71415 6.12 1.95416 10.8113C1.83779 11.1217 1.84953 11.4657 1.98678 11.7675C2.12403 12.0693 2.37556 12.3043 2.68603 12.4206C2.9965 12.537 3.34048 12.5253 3.64229 12.388C3.94411 12.2507 4.17904 11.9992 4.2954 11.6887C5.0254 9.745 6.3404 8.79375 7.5129 8.37L6.05041 12.1275C6.02624 12.19 6.00749 12.2525 5.99415 12.315C5.93424 12.5071 5.92159 12.7108 5.95728 12.9089C5.99297 13.1069 6.07595 13.2934 6.19915 13.4525L10.6517 19.2113L10.9404 23.8275C10.9486 23.9927 10.9896 24.1547 11.0609 24.304C11.1322 24.4533 11.2324 24.587 11.3557 24.6973C11.4791 24.8075 11.6231 24.8922 11.7794 24.9464C11.9357 25.0006 12.1012 25.0232 12.2664 25.013C12.4315 25.0027 12.5929 24.9598 12.7414 24.8867C12.8898 24.8135 13.0222 24.7117 13.1309 24.587C13.2397 24.4623 13.3226 24.3172 13.3749 24.1603C13.4271 24.0033 13.4477 23.8375 13.4354 23.6725L13.0979 18.2887L10.4829 14.905L12.1992 11.5787L12.3154 11.7463C12.6409 12.2192 13.1193 12.5658 13.6701 12.7276C14.221 12.8894 14.8108 12.8567 15.3404 12.635L17.9842 11.5275C18.2823 11.3943 18.5165 11.1498 18.6367 10.8462C18.7568 10.5426 18.7534 10.204 18.6272 9.90291C18.501 9.60178 18.2619 9.36199 17.9612 9.23484C17.6604 9.10769 17.3219 9.10326 17.0179 9.2225L14.3742 10.33L12.3667 7.41125C11.9043 6.61095 11.1662 6.00657 10.2904 5.71125C10.1489 5.66354 10.0019 5.63413 9.8529 5.62375" fill="#EBEBF5" fill-opacity="0.6"/>
<path d="M4.93789 18.0626L5.97164 14.9976L7.80789 17.3726L7.30539 18.8613C7.1288 19.3848 6.78378 19.835 6.32425 20.1417C5.86472 20.4483 5.31655 20.5941 4.76539 20.5563L1.16539 20.3101C1.00157 20.2989 0.841548 20.2556 0.694466 20.1826C0.547384 20.1096 0.416121 20.0083 0.308173 19.8846C0.200224 19.7608 0.117705 19.6171 0.0653248 19.4614C0.0129447 19.3058 -0.00826985 19.1414 0.00289251 18.9776C0.0140549 18.8137 0.0573755 18.6537 0.130381 18.5066C0.203386 18.3595 0.304647 18.2283 0.428381 18.1203C0.552115 18.0124 0.6959 17.9299 0.851525 17.8775C1.00715 17.8251 1.17157 17.8039 1.33539 17.8151L4.93789 18.0626Z" fill="#EBEBF5" fill-opacity="0.6"/>
</svg>
