<svg width="27" height="30" viewBox="0 0 27 30" fill="none" xmlns="http://www.w3.org/2000/svg">
<path d="M15.0256 9.3C16.3256 9.3 17.4256 10.3167 17.4256 11.6667C17.4256 13.0167 16.3256 14.0667 15.0256 14.0667C13.7256 14.0667 12.6589 12.9667 12.6589 11.6667C12.6589 10.3667 13.6756 9.3 15.0256 9.3ZM15.0256 3.4806e-06C21.4922 3.4806e-06 26.6922 5.23334 26.6922 11.6667C26.6922 16.3333 23.9756 20.3167 20.0256 22.1833V30H8.3589V25H6.69224C4.84224 25 3.3589 23.5167 3.3589 21.6667V16.6667H0.858904C0.158904 16.6667 -0.241096 15.8333 0.158904 15.3167L3.3589 11.1C3.50575 8.10549 4.79928 5.28233 6.97136 3.21575C9.14344 1.14917 12.0275 -0.00231043 15.0256 3.4806e-06ZM20.0256 11.6667C20.0256 11.4 20.0256 11.25 19.9256 11.0167L21.4089 9.91667C21.4922 9.85 21.5589 9.61667 21.4922 9.45L20.1589 7.18334C20.0756 7.03334 19.8422 6.95 19.6922 7.03334L18.0422 7.73334C17.7422 7.41667 17.3422 7.18334 16.9589 7.03334L16.6922 5.31667C16.6422 5.08334 16.5589 5 16.3256 5H13.6756C13.5089 5 13.3589 5.08334 13.3589 5.31667L13.1256 7.03334C12.7422 7.18334 12.3422 7.41667 12.0256 7.73334L10.3089 7.03334C10.1589 6.95 10.0256 7.03334 9.92557 7.18334L8.59224 9.45C8.5089 9.68334 8.5089 9.85 8.67557 9.91667L10.0756 11.0167C10.0756 11.25 10.0256 11.4833 10.0256 11.6667C10.0256 11.8833 10.0756 12.1167 10.0756 12.35L8.67557 13.4333C8.5089 13.5167 8.5089 13.6667 8.59224 13.8333L9.92557 16.1667C10.0256 16.3333 10.1589 16.3333 10.3089 16.3333L11.9589 15.6167C12.3422 15.9333 12.6589 16.1 13.1256 16.25L13.3589 18.05C13.3589 18.2 13.5089 18.3333 13.6756 18.3333H16.3256C16.5589 18.3333 16.6422 18.2 16.6922 18.05L16.9589 16.25C17.3422 16.1 17.7422 15.9333 18.0422 15.6333L19.6922 16.3333C19.8422 16.3333 20.0756 16.3333 20.1589 16.1667L21.4922 13.8333C21.5589 13.6667 21.4922 13.5167 21.4089 13.4333L20.0256 12.35V11.6667Z" fill="#00D4FF"/>
</svg>
