<svg width="27" height="27" viewBox="0 0 27 27" fill="none" xmlns="http://www.w3.org/2000/svg">
<path d="M3.33334 13.4167C3.33334 14.6667 3.56945 15.8822 4.04167 17.0633C4.51389 18.2444 5.25001 19.3344 6.25001 20.3333L6.66667 20.75V18.3333C6.66667 17.8611 6.82667 17.4656 7.14667 17.1467C7.46667 16.8278 7.86223 16.6678 8.33334 16.6667C8.80445 16.6656 9.20056 16.8256 9.52167 17.1467C9.84278 17.4678 10.0022 17.8633 10 18.3333V25C10 25.4722 9.84 25.8683 9.52001 26.1883C9.20001 26.5083 8.80445 26.6678 8.33334 26.6667H1.66667C1.19445 26.6667 0.798895 26.5067 0.480006 26.1867C0.161117 25.8667 0.00111686 25.4711 5.74712e-06 25C-0.00110536 24.5289 0.158895 24.1333 0.480006 23.8133C0.801117 23.4933 1.19667 23.3333 1.66667 23.3333H4.58334L3.91667 22.75C2.47223 21.4722 1.45834 20.0139 0.875006 18.375C0.291673 16.7361 5.74712e-06 15.0833 5.74712e-06 13.4167C5.74712e-06 10.8056 0.666672 8.43722 2.00001 6.31167C3.33334 4.18611 5.12501 2.55444 7.37501 1.41667C7.76389 1.19444 8.17389 1.18056 8.60501 1.375C9.03612 1.56944 9.32056 1.88889 9.45834 2.33333C9.59723 2.75 9.59056 3.16667 9.43834 3.58333C9.28612 4 9.01501 4.31944 8.62501 4.54167C7.01389 5.43056 5.72945 6.66 4.77167 8.23C3.81389 9.8 3.33445 11.5289 3.33334 13.4167ZM23.3333 13.25C23.3333 12 23.0972 10.785 22.625 9.605C22.1528 8.425 21.4167 7.33444 20.4167 6.33333L20 5.91667V8.33333C20 8.80556 19.84 9.20167 19.52 9.52167C19.2 9.84167 18.8045 10.0011 18.3333 10C17.8622 9.99889 17.4667 9.83889 17.1467 9.52C16.8267 9.20111 16.6667 8.80556 16.6667 8.33333V1.66667C16.6667 1.19444 16.8267 0.798889 17.1467 0.48C17.4667 0.161111 17.8622 0.00111111 18.3333 0H25C25.4722 0 25.8683 0.16 26.1883 0.48C26.5083 0.8 26.6678 1.19556 26.6667 1.66667C26.6656 2.13778 26.5056 2.53389 26.1867 2.855C25.8678 3.17611 25.4722 3.33556 25 3.33333H22.0833L22.75 3.91667C24.1111 5.27778 25.1045 6.75722 25.73 8.355C26.3556 9.95278 26.6678 11.5844 26.6667 13.25C26.6667 15.8611 26 18.2294 24.6667 20.355C23.3333 22.4806 21.5417 24.1122 19.2917 25.25C18.9028 25.4722 18.4933 25.4861 18.0633 25.2917C17.6333 25.0972 17.3483 24.7778 17.2083 24.3333C17.0695 23.9167 17.0767 23.5 17.23 23.0833C17.3833 22.6667 17.6539 22.3472 18.0417 22.125C19.6528 21.2361 20.9378 20.0072 21.8967 18.4383C22.8556 16.8694 23.3344 15.14 23.3333 13.25Z" fill="#00D4FF"/>
</svg>
