<svg width="20" height="20" viewBox="0 0 20 20" fill="none" xmlns="http://www.w3.org/2000/svg">
<path d="M2.5 10.0625C2.5 11 2.67709 11.9117 3.03125 12.7975C3.38542 13.6833 3.9375 14.5008 4.6875 15.25L5 15.5625V13.75C5 13.3958 5.12 13.0992 5.36 12.86C5.6 12.6208 5.89667 12.5008 6.25 12.5C6.60334 12.4992 6.90042 12.6192 7.14125 12.86C7.38209 13.1008 7.50167 13.3975 7.5 13.75V18.75C7.5 19.1042 7.38 19.4012 7.14 19.6412C6.9 19.8812 6.60334 20.0008 6.25 20H1.25C0.895838 20 0.599171 19.88 0.360004 19.64C0.120838 19.4 0.000837644 19.1033 4.31034e-06 18.75C-0.000829023 18.3967 0.119171 18.1 0.360004 17.86C0.600838 17.62 0.897504 17.5 1.25 17.5H3.4375L2.9375 17.0625C1.85417 16.1042 1.09375 15.0104 0.656254 13.7812C0.218754 12.5521 4.31034e-06 11.3125 4.31034e-06 10.0625C4.31034e-06 8.10417 0.500004 6.32792 1.5 4.73375C2.5 3.13958 3.84375 1.91583 5.53125 1.0625C5.82292 0.895833 6.13042 0.885416 6.45375 1.03125C6.77709 1.17708 6.99042 1.41667 7.09375 1.75C7.19792 2.0625 7.19292 2.375 7.07875 2.6875C6.96459 3 6.76125 3.23958 6.46875 3.40625C5.26042 4.07292 4.29709 4.995 3.57875 6.1725C2.86042 7.35 2.50084 8.64667 2.5 10.0625ZM17.5 9.9375C17.5 9 17.3229 8.08875 16.9688 7.20375C16.6146 6.31875 16.0625 5.50083 15.3125 4.75L15 4.4375V6.25C15 6.60417 14.88 6.90125 14.64 7.14125C14.4 7.38125 14.1033 7.50083 13.75 7.5C13.3967 7.49917 13.1 7.37917 12.86 7.14C12.62 6.90083 12.5 6.60417 12.5 6.25V1.25C12.5 0.895833 12.62 0.599167 12.86 0.36C13.1 0.120833 13.3967 0.000833333 13.75 0H18.75C19.1042 0 19.4013 0.12 19.6413 0.36C19.8813 0.6 20.0008 0.896667 20 1.25C19.9992 1.60333 19.8792 1.90042 19.64 2.14125C19.4008 2.38208 19.1042 2.50167 18.75 2.5H16.5625L17.0625 2.9375C18.0833 3.95833 18.8283 5.06792 19.2975 6.26625C19.7667 7.46458 20.0008 8.68833 20 9.9375C20 11.8958 19.5 13.6721 18.5 15.2662C17.5 16.8604 16.1563 18.0842 14.4688 18.9375C14.1771 19.1042 13.87 19.1146 13.5475 18.9688C13.225 18.8229 13.0113 18.5833 12.9063 18.25C12.8021 17.9375 12.8075 17.625 12.9225 17.3125C13.0375 17 13.2404 16.7604 13.5313 16.5938C14.7396 15.9271 15.7033 15.0054 16.4225 13.8287C17.1417 12.6521 17.5008 11.355 17.5 9.9375Z" fill="#EBEBF5" fill-opacity="0.6"/>
</svg>
