<svg width="35" height="26" viewBox="0 0 35 26" fill="none" xmlns="http://www.w3.org/2000/svg">
<path d="M5.35714 0C3.93634 0 2.57373 0.564412 1.56907 1.56907C0.564412 2.57373 0 3.93634 0 5.35714V6.42857H34.28V5.35714C34.28 3.93634 33.7156 2.57373 32.7109 1.56907C31.7063 0.564412 30.3437 0 28.9229 0H5.35714ZM0 20.3571V8.57143H34.28V20.3571C34.28 21.7779 33.7156 23.1406 32.7109 24.1452C31.7063 25.1499 30.3437 25.7143 28.9229 25.7143H5.35857C3.93777 25.7143 2.57516 25.1499 1.5705 24.1452C0.56584 23.1406 0.00142881 21.7779 0.00142881 20.3571M23.2086 16.4286C22.9244 16.4286 22.6519 16.5415 22.451 16.7424C22.25 16.9433 22.1371 17.2158 22.1371 17.5C22.1371 17.7842 22.25 18.0567 22.451 18.2576C22.6519 18.4585 22.9244 18.5714 23.2086 18.5714H28.2086C28.4927 18.5714 28.7653 18.4585 28.9662 18.2576C29.1671 18.0567 29.28 17.7842 29.28 17.5C29.28 17.2158 29.1671 16.9433 28.9662 16.7424C28.7653 16.5415 28.4927 16.4286 28.2086 16.4286H23.2086Z" fill="#00D4FF"/>
</svg>
