<svg width="21" height="21" viewBox="0 0 21 21" fill="none" xmlns="http://www.w3.org/2000/svg">
<path d="M16.6667 0C15.7292 0 14.5833 1.04167 14.5833 2.08333H6.25C6.25 1.04167 5.10417 0 4.16667 0H0V9.375C0 10.4167 1.04167 11.4583 2.08333 11.4583H4.375C4.79167 13.5417 6.14583 15.3125 9.375 15.625V17.7917C6.25 18.2708 6.25 20.8333 6.25 20.8333H14.5833C14.5833 20.8333 14.5833 18.2708 11.4583 17.7917V15.625C14.6875 15.3125 16.0417 13.5417 16.4583 11.4583H18.75C19.7917 11.4583 20.8333 10.4167 20.8333 9.375V0H16.6667ZM4.16667 9.375H2.08333V2.08333H4.16667V9.375ZM18.75 9.375H16.6667V2.08333H18.75V9.375Z" fill="white"/>
</svg>
