<svg width="35" height="35" viewBox="0 0 35 35" fill="none" xmlns="http://www.w3.org/2000/svg">
<rect x="0.5" y="0.5" width="34" height="34" rx="17" fill="#FFC400" fill-opacity="0.3"/>
<rect x="0.5" y="0.5" width="34" height="34" rx="17" stroke="#FFC400"/>
<path d="M13 27V25H17V21.9C16.1833 21.7167 15.4543 21.371 14.813 20.863C14.1717 20.355 13.7007 19.7173 13.4 18.95C12.15 18.8 11.1043 18.2543 10.263 17.313C9.42167 16.3717 9.00067 15.2673 9 14V13C9 12.45 9.196 11.9793 9.588 11.588C9.98 11.1967 10.4507 11.0007 11 11H13V9H23V11H25C25.55 11 26.021 11.196 26.413 11.588C26.805 11.98 27.0007 12.4507 27 13V14C27 15.2667 26.579 16.371 25.737 17.313C24.895 18.255 23.8493 18.8007 22.6 18.95C22.3 19.7167 21.8293 20.3543 21.188 20.863C20.5467 21.3717 19.8173 21.7173 19 21.9V25H23V27H13ZM13 16.8V13H11V14C11 14.6333 11.1833 15.2043 11.55 15.713C11.9167 16.2217 12.4 16.584 13 16.8ZM23 16.8C23.6 16.5833 24.0833 16.2207 24.45 15.712C24.8167 15.2033 25 14.6327 25 14V13H23V16.8Z" fill="#FFC400"/>
</svg>
