<svg width="20" height="20" viewBox="0 0 20 20" fill="none" xmlns="http://www.w3.org/2000/svg">
<path d="M0.714294 10.1143H3.84287C3.9746 10.1128 4.10356 10.0763 4.21652 10.0085C4.32949 9.9407 4.4224 9.8441 4.48572 9.72858L7.05715 4.58572C7.12053 4.45768 7.22156 4.35209 7.34669 4.28314C7.47182 4.21419 7.61505 4.18518 7.75715 4.20001C7.89868 4.20957 8.03377 4.2628 8.14379 4.35235C8.2538 4.4419 8.33334 4.56336 8.37144 4.70001L11.5572 15.3C11.599 15.4438 11.6849 15.5708 11.8028 15.6631C11.9207 15.7554 12.0647 15.8083 12.2143 15.8143C12.3545 15.8096 12.4902 15.7638 12.6046 15.6825C12.7189 15.6012 12.8067 15.4881 12.8572 15.3571L14.8143 10.5714C14.8682 10.4372 14.9608 10.322 15.0804 10.2406C15.2 10.1592 15.3411 10.1152 15.4857 10.1143H19.2857" stroke="#00D4FF" stroke-linecap="round" stroke-linejoin="round"/>
</svg>
