<svg width="35" height="35" viewBox="0 0 35 35" fill="none" xmlns="http://www.w3.org/2000/svg">
<path d="M12.9602 9.84082C12.7225 9.84082 12.4688 9.86415 12.2223 9.92395C11.9715 9.98374 11.3736 10.1646 11.0002 10.7435L10.9798 10.7727L10.0946 12.3039C9.64688 12.6029 9.31584 12.9748 9.08397 13.3496L9.06355 13.3787L5.31272 20.16C5.16271 20.3904 5.02918 20.6311 4.91313 20.8804L4.90438 20.895C4.55413 21.6601 4.37354 22.4919 4.37501 23.3333C4.37501 24.8804 4.98959 26.3641 6.08355 27.4581C7.17751 28.5521 8.66125 29.1667 10.2083 29.1667C11.7554 29.1667 13.2392 28.5521 14.3331 27.4581C15.4271 26.3641 16.0417 24.8804 16.0417 23.3333V21.875H18.9583V23.3333C18.9585 24.2051 19.154 25.0658 19.5306 25.8521C19.9072 26.6384 20.4552 27.3303 21.1344 27.8768C21.8136 28.4234 22.6066 28.8108 23.4552 29.0106C24.3039 29.2103 25.1865 29.2173 26.0381 29.031C26.8898 28.8447 27.6889 28.4699 28.3766 27.9341C29.0644 27.3983 29.6233 26.7152 30.0122 25.935C30.4012 25.1548 30.6103 24.2973 30.6243 23.4256C30.6382 22.5539 30.4566 21.6902 30.0927 20.8979L30.0869 20.8804C29.9708 20.6311 29.8373 20.3904 29.6873 20.16L25.9365 13.3787L25.916 13.3496C25.6595 12.9318 25.3146 12.5754 24.9054 12.3054L24.0202 10.7727L23.9998 10.7435C23.6265 10.1646 23.0271 9.9852 22.7777 9.92395C22.4606 9.85016 22.1341 9.82508 21.8094 9.84957C21.4681 9.86672 21.1324 9.94372 20.8177 10.0771C20.5494 10.1952 19.8873 10.5539 19.7181 11.3735L19.7079 11.4275L19.5038 13.0317C19.1829 13.4444 18.9583 13.965 18.9583 14.5833V16.0417H16.0417V14.5833C16.0417 13.965 15.8171 13.4444 15.4977 13.0317L15.2936 11.4275L15.2819 11.3735C15.1127 10.5539 14.4506 10.1952 14.1823 10.0771C13.8676 9.94372 13.532 9.86672 13.1906 9.84957C13.114 9.84362 13.0371 9.8407 12.9602 9.84082ZM10.2083 20.4167C10.8357 20.417 11.4463 20.6196 11.9494 20.9945C12.4525 21.3693 12.8213 21.8964 13.0011 22.4975C13.1809 23.0986 13.1621 23.7416 12.9475 24.3311C12.7328 24.9207 12.3338 25.4253 11.8096 25.7701C11.2855 26.1149 10.6641 26.2814 10.0378 26.2451C9.41142 26.2087 8.8135 25.9714 8.33275 25.5683C7.852 25.1651 7.51405 24.6177 7.36906 24.0073C7.22408 23.3969 7.27979 22.756 7.52793 22.1798L7.80501 21.681C8.33001 20.9183 9.21084 20.4167 10.2083 20.4167ZM24.7917 20.4167C25.7892 20.4167 26.67 20.9183 27.195 21.681L27.4721 22.1798C27.7202 22.756 27.7759 23.3969 27.631 24.0073C27.486 24.6177 27.148 25.1651 26.6673 25.5683C26.1865 25.9714 25.5886 26.2087 24.9623 26.2451C24.3359 26.2814 23.7145 26.1149 23.1904 25.7701C22.6662 25.4253 22.2672 24.9207 22.0526 24.3311C21.8379 23.7416 21.8191 23.0986 21.9989 22.4975C22.1787 21.8964 22.5475 21.3693 23.0506 20.9945C23.5537 20.6196 24.1643 20.417 24.7917 20.4167Z" fill="#00D4FF"/>
</svg>
