<svg width="18" height="18" viewBox="0 0 18 18" fill="none" xmlns="http://www.w3.org/2000/svg">
<g clip-path="url(#clip0_41_140)">
<path d="M11 2V1.31C11.0013 1.2706 10.9949 1.23132 10.981 1.19441C10.9672 1.1575 10.9462 1.12368 10.9193 1.09489C10.8923 1.0661 10.86 1.0429 10.8241 1.02662C10.7882 1.01034 10.7494 1.00129 10.71 1H7.29C7.2506 1.00129 7.21183 1.01034 7.17593 1.02662C7.14002 1.0429 7.10768 1.0661 7.08075 1.09489C7.05381 1.12368 7.03282 1.1575 7.01896 1.19441C7.00511 1.23132 6.99866 1.2706 7 1.31V2H5C4.8651 2.01116 4.73918 2.07212 4.64676 2.17102C4.55434 2.26991 4.50202 2.39966 4.5 2.535V16.535C4.50887 16.6615 4.56544 16.7798 4.65827 16.8661C4.75109 16.9525 4.87324 17.0003 5 17H13C13.1276 17.0002 13.2504 16.9517 13.3434 16.8643C13.4363 16.7769 13.4923 16.6573 13.5 16.53V2.53C13.4968 2.39553 13.4439 2.26701 13.3516 2.16916C13.2593 2.07132 13.1341 2.01107 13 2H11ZM10.13 12.72C10.2009 12.8626 10.2124 13.0275 10.1617 13.1784C10.1111 13.3294 10.0026 13.4541 9.86 13.525C9.71745 13.5959 9.55255 13.6074 9.40158 13.5567C9.25061 13.5061 9.12595 13.3976 9.055 13.255L6.325 7.78L9.325 8.28L8.18 6.28C8.1406 6.21171 8.11504 6.13633 8.10478 6.05817C8.09451 5.98 8.09974 5.90058 8.12017 5.82444C8.1406 5.74829 8.17583 5.67692 8.22384 5.61439C8.27185 5.55186 8.33171 5.4994 8.4 5.46C8.46829 5.4206 8.54367 5.39504 8.62183 5.38478C8.7 5.37451 8.77942 5.37974 8.85556 5.40017C8.93171 5.4206 9.00308 5.45583 9.06561 5.50384C9.12814 5.55185 9.1806 5.61171 9.22 5.68L11.635 9.865L8.45 9.35L10.13 12.72Z" fill="#00D4FF"/>
</g>
<defs>
<clipPath id="clip0_41_140">
<rect width="18" height="18" fill="white"/>
</clipPath>
</defs>
</svg>
