<svg width="16" height="16" viewBox="0 0 16 16" fill="none" xmlns="http://www.w3.org/2000/svg">
<path fill-rule="evenodd" clip-rule="evenodd" d="M12 1.69003C12.0008 1.56816 11.9565 1.4503 11.8756 1.35911C11.7948 1.26793 11.6831 1.20984 11.562 1.19603C9.19455 0.934169 6.80545 0.934169 4.438 1.19603C4.31709 1.20982 4.20552 1.26776 4.12469 1.35874C4.04386 1.44972 3.99946 1.56733 4 1.68903V2.25603C3.18933 2.3607 2.38833 2.49603 1.597 2.66203C1.43199 2.69682 1.28353 2.78621 1.17557 2.91575C1.06761 3.0453 1.00647 3.20745 1.002 3.37603L1 3.50003C0.999879 4.66778 1.45371 5.78986 2.26561 6.62919C3.07751 7.46852 4.18388 7.95936 5.351 7.99803C5.82386 8.41603 6.38892 8.71621 7 8.87403V10H6C5.73478 10 5.48043 10.1054 5.29289 10.2929C5.10536 10.4805 5 10.7348 5 11V13H4.333C3.597 13 3 13.597 3 14.333C3 14.701 3.298 15 3.667 15H12.333C12.5099 15 12.6796 14.9298 12.8046 14.8047C12.9297 14.6796 13 14.5099 13 14.333C13 13.597 12.403 13 11.667 13H11V11C11 10.7348 10.8946 10.4805 10.7071 10.2929C10.5196 10.1054 10.2652 10 10 10H9V8.87403C9.61108 8.71621 10.1761 8.41603 10.649 7.99803C11.8377 7.95884 12.9625 7.45066 13.7777 6.58457C14.5928 5.71848 15.0319 4.56492 14.999 3.37603C14.9945 3.20732 14.9332 3.04506 14.825 2.91549C14.7169 2.78592 14.5682 2.69662 14.403 2.66203C13.6076 2.49525 12.806 2.35981 12 2.25603V1.69003ZM4 3.76803C3.51 3.8347 3.024 3.91303 2.542 4.00303C2.62185 4.47231 2.81222 4.91585 3.09739 5.297C3.38256 5.67816 3.75434 5.98598 4.182 6.19503C4.06115 5.80822 3.99978 5.40528 4 5.00003V3.76803ZM12 3.76803C12.49 3.8347 12.976 3.91303 13.458 4.00303C13.3782 4.47231 13.1878 4.91585 12.9026 5.297C12.6174 5.67816 12.2457 5.98598 11.818 6.19503C11.936 5.81803 12 5.41603 12 5.00003V3.76803Z" fill="#00D4FF"/>
</svg>
