<svg width="18" height="18" viewBox="0 0 18 18" fill="none" xmlns="http://www.w3.org/2000/svg">
<path d="M13.5 12C14.0967 12 14.669 12.2371 15.091 12.659C15.5129 13.081 15.75 13.6533 15.75 14.25C15.75 14.8467 15.5129 15.419 15.091 15.841C14.669 16.2629 14.0967 16.5 13.5 16.5C12.9033 16.5 12.331 16.2629 11.909 15.841C11.4871 15.419 11.25 14.8467 11.25 14.25C11.25 13.6533 11.4871 13.081 11.909 12.659C12.331 12.2371 12.9033 12 13.5 12ZM11.625 3C12.5201 3 13.3785 3.35558 14.0115 3.98851C14.6444 4.62145 15 5.47989 15 6.375C15 7.27011 14.6444 8.12855 14.0115 8.76149C13.3785 9.39442 12.5201 9.75 11.625 9.75H6.375C5.87772 9.75 5.40081 9.94754 5.04917 10.2992C4.69754 10.6508 4.5 11.1277 4.5 11.625C4.5 12.1223 4.69754 12.5992 5.04917 12.9508C5.40081 13.3025 5.87772 13.5 6.375 13.5H9.75C9.94891 13.5 10.1397 13.579 10.2803 13.7197C10.421 13.8603 10.5 14.0511 10.5 14.25C10.5 14.4489 10.421 14.6397 10.2803 14.7803C10.1397 14.921 9.94891 15 9.75 15H6.375C5.47989 15 4.62145 14.6444 3.98851 14.0115C3.35558 13.3785 3 12.5201 3 11.625C3 10.7299 3.35558 9.87145 3.98851 9.23851C4.62145 8.60558 5.47989 8.25 6.375 8.25H11.625C12.1223 8.25 12.5992 8.05246 12.9508 7.70083C13.3025 7.34919 13.5 6.87228 13.5 6.375C13.5 5.87772 13.3025 5.40081 12.9508 5.04917C12.5992 4.69754 12.1223 4.5 11.625 4.5H8.25C8.05109 4.5 7.86032 4.42098 7.71967 4.28033C7.57902 4.13968 7.5 3.94891 7.5 3.75C7.5 3.55109 7.57902 3.36032 7.71967 3.21967C7.86032 3.07902 8.05109 3 8.25 3H11.625ZM4.5 1.5C5.09674 1.5 5.66903 1.73705 6.09099 2.15901C6.51295 2.58097 6.75 3.15326 6.75 3.75C6.75 4.34674 6.51295 4.91903 6.09099 5.34099C5.66903 5.76295 5.09674 6 4.5 6C3.90326 6 3.33097 5.76295 2.90901 5.34099C2.48705 4.91903 2.25 4.34674 2.25 3.75C2.25 3.15326 2.48705 2.58097 2.90901 2.15901C3.33097 1.73705 3.90326 1.5 4.5 1.5Z" fill="#00D4FF"/>
</svg>
