<svg width="71" height="71" viewBox="0 0 71 71" fill="none" xmlns="http://www.w3.org/2000/svg">
<g filter="url(#filter0_d_37_53)">
<rect x="3" y="3" width="65" height="65" rx="32.5" fill="#0E0E1F"/>
<g filter="url(#filter1_d_37_53)">
<rect x="8" y="8" width="55" height="55" rx="27.5" fill="#0E0E1F"/>
<path d="M28.4281 21.7477C28.3203 21.8133 28.3812 27.4688 28.4492 27.5836C28.5336 27.7266 29.6469 28.7649 30.6383 29.6297C31.4141 30.3047 32.0984 29.8313 32.2273 29.8313C32.5203 29.8313 37.4422 29.8852 37.5898 29.8852C37.6508 29.8852 38.5227 30.3938 39.2562 29.7703C40.2992 28.8797 41.5531 27.7617 41.5742 27.5977C41.5953 27.4383 41.5977 21.818 41.5203 21.7688C41.4852 21.7453 40.5969 21.7313 39.357 21.7172C38.3023 21.7055 36.1531 22.2469 34.782 22.2422C33.0242 22.2375 32.0187 21.6891 30.65 21.7008C29.3961 21.7102 28.468 21.7219 28.4281 21.7477Z" fill="#176BC6"/>
<path d="M30.6453 21.6937L30.6383 29.6297C30.6383 29.6297 31.0227 29.9719 31.4094 30.2883C31.775 30.5883 32.143 30.8625 32.1711 30.8601C32.4266 30.8414 37.7399 30.9726 37.85 30.9187C37.911 30.8883 38.3071 30.5765 38.6797 30.2695C38.968 30.0305 39.261 29.7773 39.261 29.7773L39.3664 21.7125C39.3664 21.7125 38.7008 21.7101 37.8289 21.7031C37.8242 21.7031 35.6586 21.9562 34.8383 21.9586C33.8539 21.9609 32.9539 21.6867 32.0867 21.6867C31.0836 21.6867 30.6453 21.6937 30.6453 21.6937Z" fill="white"/>
<path d="M32.1453 30.8672C31.9977 30.757 32.0844 21.6867 32.0844 21.6867C32.0844 21.6867 33.0547 21.675 35.1149 21.6844C36.9102 21.6914 37.8289 21.7031 37.8289 21.7031C37.8289 21.7031 37.9133 30.7594 37.8219 30.907C37.7305 31.0547 36.2281 31.8047 35.2016 31.8211C34.175 31.8375 32.218 30.9234 32.1453 30.8672Z" fill="#DB0D2A"/>
<path d="M35.0586 33.3141C35.5461 33.2859 37.9321 30.9797 37.8875 30.9047C37.8571 30.8531 36.4367 30.8461 35.0024 30.8391C33.568 30.832 32.1266 30.8016 32.1196 30.8531C32.1078 30.9539 34.4586 33.3492 35.0586 33.3141Z" fill="#FBC21F"/>
<path d="M34.9976 32.9109C34.8359 32.9109 34.7258 33.2156 34.6297 33.4219C34.5336 33.6281 32.1125 39.0305 32.082 39.0797C32.0492 39.1266 26.6094 39.1758 26.3539 39.2086C26.0984 39.2414 25.9109 39.3352 25.9109 39.4477C25.9109 39.5602 25.8758 39.7899 26.0187 39.9C26.1617 40.0125 30.5703 43.6594 30.5703 43.7391C30.5703 43.8188 29.1312 49.5867 29.1476 49.7156C29.1641 49.8445 29.2461 49.9805 29.3422 50.0602C29.4383 50.1399 29.5039 50.1375 29.6656 50.1024C29.968 50.0367 34.7351 47.1094 34.8008 47.1258C34.8641 47.1422 39.7648 50.0227 39.8914 50.0391C40.0203 50.0555 40.1633 50.0391 40.257 49.9734C40.3508 49.9078 40.4469 49.657 40.3976 49.4813C40.3508 49.3055 39.3617 44.2219 39.3945 44.1258C39.4273 44.0297 43.6297 40.4016 43.7094 40.2422C43.7891 40.0828 43.6367 39.7078 43.4937 39.5953C43.3508 39.4828 37.9531 39.0984 37.8406 39.0352C37.7281 38.9719 35.4922 33.4711 35.4617 33.3586C35.4312 33.2461 35.1734 32.9109 34.9976 32.9109Z" fill="#FBC21F"/>
<path d="M32.7617 39.1102C32.7617 39.232 34.2805 42.2578 34.3766 42.2578C34.4727 42.2578 35.0469 42.0188 35.0469 42.0188C35.0469 42.0188 35.0633 34.2375 35.0141 34.3172C34.9672 34.3969 32.7617 38.8547 32.7617 39.1102ZM35.9258 42.3234C35.8648 42.2484 37.332 39.8789 37.5242 39.7992C37.7164 39.7195 42.8774 40.0219 42.8609 40.1344C42.8445 40.2445 35.9891 42.4031 35.9258 42.3234ZM31.1797 43.8258C31.1024 43.8938 29.9656 48.668 30.0289 48.7781C30.0922 48.8906 34.2477 43.8727 34.2313 43.7766C34.2149 43.6805 34.2477 42.7852 34.2477 42.7852C34.2477 42.7852 31.3063 43.7133 31.1797 43.8258Z" fill="#FDEFAA"/>
<path d="M35.4734 42.0211C35.457 41.9719 35.3188 41.3321 35.2859 41.161C35.2531 40.9992 35.1406 40.8211 34.9789 40.8211C34.8242 40.8211 34.707 40.9875 34.6555 41.2102C34.5828 41.5172 34.4703 42.0211 34.4703 42.0211C34.4703 42.0211 33.8703 41.9696 33.7344 41.9649C33.5234 41.9578 33.2727 41.9719 33.2328 42.1594C33.207 42.2742 33.2445 42.4266 33.5563 42.6211C33.8164 42.7828 34.1234 42.961 34.1234 42.961C34.1234 42.961 34.032 43.3008 33.9617 43.6078C33.9219 43.786 33.8234 44.1188 33.9945 44.2078C34.1633 44.2969 34.3602 44.1516 34.5523 43.9641L34.9648 43.568C34.9648 43.568 35.3258 43.8422 35.4617 43.9524C35.6258 44.086 35.8836 44.1703 36.0125 44.0578C36.1508 43.936 36.1203 43.7344 36.0453 43.5141C35.9633 43.2797 35.8016 42.9305 35.8016 42.9305C35.8016 42.9305 36.3594 42.5789 36.4625 42.5063C36.568 42.4336 36.6898 42.2625 36.6172 42.0774C36.568 41.9508 36.357 41.9063 36.1789 41.9391C36.0008 41.9719 35.4734 42.0211 35.4734 42.0211ZM37.2828 41.8735C37.3625 42.1571 37.6438 42.1008 38.143 41.9742C38.6398 41.85 43.3461 40.3992 43.5055 40.3453C43.6789 40.2867 43.9461 40.0852 43.8664 39.8485C43.7867 39.6094 43.5383 39.5531 43.2547 39.6211C42.9711 39.6891 38.3 41.2617 37.993 41.3742C37.7938 41.4492 37.2031 41.5899 37.2828 41.8735ZM35.0094 40.0102C35.3023 39.9774 35.2813 39.3539 35.3211 38.843C35.3609 38.3321 35.4313 33.3375 35.4313 33.1688C35.4313 32.986 35.3211 32.693 35.0703 32.693C34.8195 32.693 34.6906 32.8852 34.6648 33.1735C34.6391 33.4641 34.6625 38.4399 34.6813 38.7633C34.7141 39.2789 34.7305 40.043 35.0094 40.0102ZM32.4875 41.8172C32.5602 41.5336 31.9953 41.3297 31.5219 41.1328C31.0484 40.9336 26.593 39.3516 26.4313 39.2977C26.2578 39.2414 25.9648 39.2438 25.8852 39.4805C25.8055 39.7196 25.9297 39.9094 26.1969 40.0266C26.4641 40.1438 30.8961 41.6555 31.2102 41.7399C31.7094 41.8711 32.4125 42.1102 32.4875 41.8172ZM33.6102 44.6672C33.3594 44.5125 32.9914 44.911 32.6445 45.2907C32.2977 45.6703 29.3398 49.3875 29.2344 49.5211C29.1219 49.6664 29.0094 49.9828 29.2086 50.1352C29.4055 50.2899 29.6445 50.1985 29.8438 49.9852C30.043 49.7719 32.9398 46.0781 33.1227 45.8086C33.4133 45.3844 33.8492 44.8149 33.6102 44.6672ZM36.3805 44.5875C36.1602 44.7821 36.493 45.1805 36.7555 45.6211C37.018 46.0617 39.6055 49.7602 39.7039 49.8985C39.8094 50.0485 40.0789 50.2477 40.2852 50.1024C40.4914 49.9571 40.4727 49.7039 40.3273 49.4532C40.182 49.2024 37.475 45.4946 37.2711 45.2414C36.9453 44.8407 36.5914 44.4024 36.3805 44.5875Z" fill="#F6922C"/>
</g>
</g>
<defs>
<filter id="filter0_d_37_53" x="0" y="0" width="71" height="71" filterUnits="userSpaceOnUse" color-interpolation-filters="sRGB">
<feFlood flood-opacity="0" result="BackgroundImageFix"/>
<feColorMatrix in="SourceAlpha" type="matrix" values="0 0 0 0 0 0 0 0 0 0 0 0 0 0 0 0 0 0 127 0" result="hardAlpha"/>
<feOffset/>
<feGaussianBlur stdDeviation="1.5"/>
<feComposite in2="hardAlpha" operator="out"/>
<feColorMatrix type="matrix" values="0 0 0 0 1 0 0 0 0 0.768627 0 0 0 0 0 0 0 0 0.3 0"/>
<feBlend mode="normal" in2="BackgroundImageFix" result="effect1_dropShadow_37_53"/>
<feBlend mode="normal" in="SourceGraphic" in2="effect1_dropShadow_37_53" result="shape"/>
</filter>
<filter id="filter1_d_37_53" x="6" y="6" width="59" height="59" filterUnits="userSpaceOnUse" color-interpolation-filters="sRGB">
<feFlood flood-opacity="0" result="BackgroundImageFix"/>
<feColorMatrix in="SourceAlpha" type="matrix" values="0 0 0 0 0 0 0 0 0 0 0 0 0 0 0 0 0 0 127 0" result="hardAlpha"/>
<feOffset/>
<feGaussianBlur stdDeviation="1"/>
<feComposite in2="hardAlpha" operator="out"/>
<feColorMatrix type="matrix" values="0 0 0 0 1 0 0 0 0 0.768627 0 0 0 0 0 0 0 0 0.3 0"/>
<feBlend mode="normal" in2="BackgroundImageFix" result="effect1_dropShadow_37_53"/>
<feBlend mode="normal" in="SourceGraphic" in2="effect1_dropShadow_37_53" result="shape"/>
</filter>
</defs>
</svg>
