<svg width="64" height="64" viewBox="0 0 64 64" fill="none" xmlns="http://www.w3.org/2000/svg">
<rect x="1" y="1" width="62" height="62" rx="31" stroke="#FFC400" stroke-width="2"/>
<path d="M32.5 24.2083C35.5942 24.2083 38.5616 25.4375 40.7496 27.6254C42.9375 29.8133 44.1666 32.7808 44.1666 35.875C44.1666 38.9692 42.9375 41.9367 40.7496 44.1246C38.5616 46.3125 35.5942 47.5417 32.5 47.5417C29.4058 47.5417 26.4383 46.3125 24.2504 44.1246C22.0625 41.9367 20.8333 38.9692 20.8333 35.875C20.8333 32.7808 22.0625 29.8133 24.2504 27.6254C26.4383 25.4375 29.4058 24.2083 32.5 24.2083ZM32.5 29.3125L30.5721 33.2208L26.2583 33.8479L29.3791 36.8885L28.6427 41.1848L32.5 39.1562L36.3573 41.1833L35.6208 36.8885L38.7416 33.8465L34.4279 33.2194L32.5 29.3125ZM33.9583 16.9152L41.25 16.9167V21.2917L39.2623 22.9512C37.6132 22.0852 35.8121 21.5464 33.9583 21.3646V16.9152ZM31.0416 16.9152V21.3631C29.1884 21.5451 27.3878 22.0839 25.7391 22.9498L23.75 21.2917V16.9167L31.0416 16.9152Z" fill="#FFC400"/>
</svg>
