<svg width="47" height="47" viewBox="0 0 47 47" fill="none" xmlns="http://www.w3.org/2000/svg">
<rect x="0.5" y="0.5" width="46" height="46" rx="9.5" fill="#007F99" fill-opacity="0.5"/>
<rect x="0.5" y="0.5" width="46" height="46" rx="9.5" stroke="#00D4FF"/>
<path d="M27.25 18.5C27.8467 18.5 28.419 18.2629 28.841 17.841C29.263 17.419 29.5 16.8467 29.5 16.25C29.5 15.6533 29.263 15.081 28.841 14.659C28.419 14.2371 27.8467 14 27.25 14C26.6533 14 26.081 14.2371 25.659 14.659C25.2371 15.081 25 15.6533 25 16.25C25 16.8467 25.2371 17.419 25.659 17.841C26.081 18.2629 26.6533 18.5 27.25 18.5ZM24.383 18.499C22.888 18.289 19.471 18.896 18.063 22.649C17.9699 22.8974 17.9793 23.1726 18.0891 23.414C18.1989 23.6555 18.4001 23.8434 18.6485 23.9365C18.8969 24.0296 19.1721 24.0202 19.4135 23.9104C19.655 23.8006 19.8429 23.5994 19.936 23.351C20.52 21.796 21.572 21.035 22.51 20.696L21.34 23.702C21.3207 23.752 21.3057 23.802 21.295 23.852C21.2471 24.0057 21.237 24.1687 21.2655 24.3271C21.2941 24.4855 21.3604 24.6347 21.459 24.762L25.021 29.369L25.252 33.062C25.2586 33.1942 25.2913 33.3238 25.3484 33.4432C25.4054 33.5627 25.4856 33.6696 25.5843 33.7578C25.6829 33.846 25.7981 33.9138 25.9232 33.9571C26.0483 34.0005 26.1807 34.0186 26.3128 34.0104C26.4449 34.0022 26.574 33.9678 26.6928 33.9093C26.8115 33.8508 26.9174 33.7693 27.0044 33.6696C27.0914 33.5698 27.1578 33.4538 27.1996 33.3282C27.2414 33.2026 27.2578 33.07 27.248 32.938L26.978 28.631L24.886 25.924L26.259 23.263L26.352 23.397C26.6124 23.7754 26.9951 24.0526 27.4358 24.1821C27.8765 24.3116 28.3483 24.2854 28.772 24.108L30.887 23.222C31.1255 23.1155 31.3129 22.9199 31.409 22.677C31.5051 22.4341 31.5024 22.1632 31.4014 21.9223C31.3005 21.6814 31.1092 21.4896 30.8686 21.3879C30.628 21.2861 30.3572 21.2826 30.114 21.378L27.999 22.264L26.393 19.929C26.0232 19.2888 25.4326 18.8053 24.732 18.569C24.6188 18.5308 24.5012 18.5073 24.382 18.499" fill="#00D4FF"/>
<path d="M20.4499 28.45L21.2769 25.998L22.7459 27.898L22.3439 29.089C22.2027 29.5078 21.9267 29.868 21.559 30.1133C21.1914 30.3586 20.7529 30.4753 20.3119 30.445L17.4319 30.248C17.3009 30.2391 17.1729 30.2044 17.0552 30.146C16.9375 30.0876 16.8325 30.0066 16.7462 29.9076C16.6598 29.8086 16.5938 29.6936 16.5519 29.5691C16.51 29.4446 16.493 29.3131 16.5019 29.182C16.5109 29.0509 16.5455 28.9229 16.6039 28.8053C16.6623 28.6876 16.7434 28.5826 16.8423 28.4962C16.9413 28.4099 17.0564 28.3439 17.1809 28.3019C17.3054 28.26 17.4369 28.2431 17.5679 28.252L20.4499 28.45Z" fill="#00D4FF"/>
</svg>
