<svg width="28" height="23" viewBox="0 0 28 23" fill="none" xmlns="http://www.w3.org/2000/svg">
<path d="M23.4362 5.625V5.15625C23.435 4.14053 23.1338 3.14779 22.5704 2.30261C22.0071 1.45744 21.2066 0.797484 20.2696 0.405558C19.3325 0.0136328 18.3005 -0.0928014 17.3032 0.0996123C16.3059 0.292026 15.3876 0.774716 14.6636 1.48711C14.6207 1.53028 14.5869 1.58149 14.564 1.63781C14.541 1.69413 14.5295 1.75443 14.53 1.81524V12.2121C14.5302 12.2966 14.5533 12.3795 14.5967 12.452C14.6402 12.5245 14.7025 12.5838 14.7769 12.6238C14.8514 12.6638 14.9353 12.6829 15.0197 12.6791C15.1041 12.6754 15.1859 12.6488 15.2565 12.6023C16.148 12.0308 17.1835 11.7243 18.2425 11.7188C18.4876 11.7142 18.7251 11.8037 18.9063 11.969C19.0874 12.1342 19.1984 12.3625 19.2163 12.607C19.223 12.7342 19.2037 12.8614 19.1596 12.9809C19.1155 13.1004 19.0475 13.2097 18.9597 13.302C18.872 13.3943 18.7664 13.4678 18.6493 13.518C18.5322 13.5681 18.4062 13.5939 18.2788 13.5938C17.2842 13.5938 16.3304 13.9888 15.6271 14.6921C14.9239 15.3954 14.5288 16.3492 14.5288 17.3438V21.3141C14.5287 21.3842 14.5443 21.4534 14.5746 21.5167C14.6048 21.58 14.6488 21.6357 14.7034 21.6797C15.3687 22.2303 16.1519 22.62 16.9923 22.8186C17.8327 23.0172 18.7076 23.0193 19.5489 22.8247C20.3903 22.6302 21.1754 22.2442 21.8433 21.6969C22.5112 21.1495 23.0439 20.4555 23.3999 19.6687C23.4357 19.5896 23.4489 19.5021 23.4379 19.416C23.4269 19.3298 23.3922 19.2484 23.3376 19.1808C23.283 19.1132 23.2108 19.0622 23.1288 19.0333C23.0469 19.0044 22.9586 18.9988 22.8737 19.0172C22.2894 19.1512 21.6919 19.2188 21.0925 19.2188H20.1866C19.9447 19.2217 19.7107 19.1332 19.5314 18.9708C19.3521 18.8085 19.2408 18.5843 19.2198 18.3434C19.2113 18.2151 19.2292 18.0865 19.2725 17.9655C19.3158 17.8445 19.3835 17.7337 19.4714 17.6399C19.5594 17.5462 19.6656 17.4715 19.7836 17.4206C19.9016 17.3696 20.0288 17.3435 20.1573 17.3438H21.0948C22.0743 17.3452 23.0395 17.1088 23.9073 16.6547C24.9351 16.1194 25.7889 15.3022 26.3687 14.2989C26.9485 13.2955 27.2301 12.1477 27.1807 10.99C27.1312 9.83223 26.7527 8.71259 26.0895 7.76236C25.4263 6.81212 24.5059 6.07069 23.4362 5.625ZM22.03 9.84375H21.5612C20.4423 9.84375 19.3693 9.39928 18.5781 8.60811C17.7869 7.81694 17.3425 6.74388 17.3425 5.625V5.15625C17.3425 4.90761 17.4412 4.66915 17.6171 4.49334C17.7929 4.31752 18.0313 4.21875 18.28 4.21875C18.5286 4.21875 18.7671 4.31752 18.9429 4.49334C19.1187 4.66915 19.2175 4.90761 19.2175 5.15625V5.625C19.2175 5.93279 19.2781 6.23756 19.3959 6.52192C19.5137 6.80627 19.6863 7.06464 19.9039 7.28228C20.3435 7.72182 20.9396 7.96875 21.5612 7.96875H22.03C22.2786 7.96875 22.5171 8.06752 22.6929 8.24334C22.8687 8.41915 22.9675 8.65761 22.9675 8.90625C22.9675 9.15489 22.8687 9.39335 22.6929 9.56916C22.5171 9.74498 22.2786 9.84375 22.03 9.84375ZM8.90497 4.14356e-07C7.53792 0.00155123 6.22731 0.545295 5.26066 1.51194C4.29401 2.47859 3.75027 3.7892 3.74872 5.15625V5.625C2.67918 6.07093 1.75896 6.81256 1.09597 7.76292C0.432977 8.71329 0.0546993 9.83299 0.00549706 10.9907C-0.0437052 12.1485 0.238208 13.2962 0.818177 14.2994C1.39815 15.3026 2.25212 16.1196 3.27997 16.6547C4.14783 17.1088 5.113 17.3452 6.09247 17.3438H6.99833C7.2406 17.3402 7.47523 17.4285 7.65503 17.5909C7.83483 17.7533 7.94647 17.9778 7.96747 18.2191C7.97598 18.3474 7.95804 18.476 7.91476 18.597C7.87147 18.718 7.80376 18.8288 7.71585 18.9226C7.62793 19.0163 7.52167 19.091 7.40368 19.1419C7.28569 19.1929 7.15849 19.219 7.02997 19.2188H6.09247C5.49256 19.219 4.89458 19.151 4.31005 19.016C4.22522 18.9975 4.13692 19.0029 4.05499 19.0317C3.97306 19.0604 3.90072 19.1113 3.84604 19.1788C3.79136 19.2462 3.75648 19.3275 3.7453 19.4136C3.73412 19.4997 3.74707 19.5872 3.7827 19.6664C4.13864 20.4533 4.67126 21.1476 5.33917 21.6952C6.00707 22.2428 6.79226 22.629 7.6337 22.8238C8.47514 23.0185 9.35016 23.0166 10.1908 22.8182C11.0313 22.6198 11.8148 22.2302 12.4804 21.6797C12.535 21.6357 12.579 21.58 12.6092 21.5167C12.6394 21.4534 12.6551 21.3842 12.655 21.3141V17.3438C12.655 16.3492 12.2599 15.3954 11.5566 14.6921C10.8534 13.9888 9.89953 13.5938 8.90497 13.5938C8.7776 13.5939 8.65153 13.5681 8.53446 13.518C8.41739 13.4678 8.31176 13.3943 8.22403 13.302C8.1363 13.2097 8.0683 13.1004 8.02419 12.9809C7.98008 12.8614 7.96078 12.7342 7.96747 12.607C7.98542 12.3623 8.09653 12.1338 8.27791 11.9685C8.4593 11.8033 8.69714 11.7139 8.94247 11.7188C10.0014 11.7243 11.037 12.0308 11.9284 12.6023C11.999 12.6488 12.0808 12.6754 12.1653 12.6791C12.2497 12.6829 12.3336 12.6638 12.408 12.6238C12.4825 12.5838 12.5447 12.5245 12.5882 12.452C12.6317 12.3795 12.6547 12.2966 12.655 12.2121V1.81524C12.6554 1.69219 12.6074 1.57392 12.5214 1.48594C11.5588 0.533466 10.2591 -0.000543015 8.90497 4.14356e-07ZM9.84247 5.625C9.84247 6.74388 9.398 7.81694 8.60683 8.60811C7.81566 9.39928 6.7426 9.84375 5.62372 9.84375H5.15497C4.90633 9.84375 4.66787 9.74498 4.49206 9.56916C4.31624 9.39335 4.21747 9.15489 4.21747 8.90625C4.21747 8.65761 4.31624 8.41915 4.49206 8.24334C4.66787 8.06752 4.90633 7.96875 5.15497 7.96875H5.62372C5.93151 7.96875 6.23628 7.90813 6.52063 7.79034C6.80499 7.67256 7.06336 7.49992 7.281 7.28228C7.49864 7.06464 7.67128 6.80627 7.78906 6.52192C7.90685 6.23756 7.96747 5.93279 7.96747 5.625V5.15625C7.96747 4.90761 8.06624 4.66915 8.24206 4.49334C8.41787 4.31752 8.65633 4.21875 8.90497 4.21875C9.15361 4.21875 9.39207 4.31752 9.56788 4.49334C9.7437 4.66915 9.84247 4.90761 9.84247 5.15625V5.625Z" fill="white"/>
</svg>
