<svg width="23" height="27" viewBox="0 0 23 27" fill="none" xmlns="http://www.w3.org/2000/svg">
<path d="M11.0356 5.15625C16.1971 5.15625 20.3813 9.34043 20.3813 14.502V21.3281C20.3813 21.5768 20.2825 21.8152 20.1067 21.991C19.9309 22.1669 19.6924 22.2656 19.4438 22.2656H2.62738C2.37874 22.2656 2.14028 22.1669 1.96447 21.991C1.78865 21.8152 1.68988 21.5768 1.68988 21.3281V14.502C1.68988 9.34043 5.87406 5.15625 11.0356 5.15625ZM10.2153 0H11.8559C11.9181 0 11.9777 0.0246931 12.0216 0.0686469C12.0656 0.112601 12.0903 0.172215 12.0903 0.234375V3.04688C12.0903 3.10904 12.0656 3.16865 12.0216 3.2126C11.9777 3.25656 11.9181 3.28125 11.8559 3.28125H10.2153C10.1531 3.28125 10.0935 3.25656 10.0495 3.2126C10.0056 3.16865 9.9809 3.10904 9.9809 3.04688V0.234375C9.9809 0.172215 10.0056 0.112601 10.0495 0.0686469C10.0935 0.0246931 10.1531 0 10.2153 0ZM1.22846 3.62285C1.25022 3.60106 1.27607 3.58377 1.30452 3.57198C1.33298 3.56018 1.36348 3.55411 1.39428 3.55411C1.42508 3.55411 1.45558 3.56018 1.48403 3.57198C1.51248 3.58377 1.53833 3.60106 1.5601 3.62285L3.54877 5.61152C3.59269 5.65547 3.61736 5.71506 3.61736 5.7772C3.61736 5.83933 3.59269 5.89892 3.54877 5.94287L2.38861 7.10303C2.34466 7.14695 2.28507 7.17162 2.22294 7.17162C2.1608 7.17162 2.10121 7.14695 2.05726 7.10303L0.0685926 5.11436C0.024672 5.07041 0 5.01082 0 4.94868C0 4.88655 0.024672 4.82696 0.0685926 4.78301L1.22875 3.62285H1.22846ZM20.8456 3.62285L22.0058 4.78301C22.0496 4.82694 22.0742 4.88647 22.0742 4.94854C22.0742 5.0106 22.0496 5.07013 22.0058 5.11406L20.0171 7.10332C19.9954 7.12511 19.9695 7.1424 19.9411 7.15419C19.9126 7.16599 19.8821 7.17206 19.8513 7.17206C19.8205 7.17206 19.79 7.16599 19.7616 7.15419C19.7331 7.1424 19.7073 7.12511 19.6855 7.10332L18.5253 5.94316C18.5035 5.9214 18.4863 5.89555 18.4745 5.8671C18.4627 5.83864 18.4566 5.80814 18.4566 5.77734C18.4566 5.74654 18.4627 5.71604 18.4745 5.68759C18.4863 5.65914 18.5035 5.63329 18.5253 5.61152L20.5143 3.62285C20.5582 3.57893 20.6178 3.55426 20.68 3.55426C20.7421 3.55426 20.8017 3.57893 20.8456 3.62285ZM1.66058 24.1406H20.4106C20.6592 24.1406 20.8977 24.2394 21.0735 24.4152C21.2493 24.591 21.3481 24.8295 21.3481 25.0781V25.7812C21.3481 25.8434 21.3234 25.903 21.2794 25.947C21.2355 25.9909 21.1759 26.0156 21.1137 26.0156H0.95746C0.8953 26.0156 0.835685 25.9909 0.791731 25.947C0.747777 25.903 0.723085 25.8434 0.723085 25.7812V25.0781C0.723085 24.8295 0.821857 24.591 0.997672 24.4152C1.17349 24.2394 1.41194 24.1406 1.66058 24.1406ZM5.99652 14.8535V22.2656H7.87152V14.8535H5.99652Z" fill="#EBEBF5" fill-opacity="0.6"/>
</svg>
