<svg width="24" height="24" viewBox="0 0 24 24" fill="none" xmlns="http://www.w3.org/2000/svg">
<path d="M8.97591 3.56001C8.93114 3.38675 8.8259 3.2352 8.67919 3.13273C8.53247 3.03027 8.35396 2.98364 8.17588 3.00127C7.99779 3.0189 7.83188 3.09962 7.70811 3.22886C7.58433 3.35809 7.51084 3.52733 7.50091 3.70601C5.68091 4.30101 4.54991 5.22301 3.87691 6.29501C3.16891 7.42101 3.02791 8.61901 3.00391 9.54101L3.00191 9.63401L2.49491 10.267C2.30077 10.5096 2.15898 10.7898 2.0785 11.09C1.99801 11.3901 1.98056 11.7036 2.02726 12.0109C2.07395 12.3181 2.18377 12.6123 2.34979 12.8749C2.51582 13.1376 2.73445 13.363 2.99191 13.537L12.0589 19.668C13.341 20.5349 14.8532 20.9982 16.4009 20.998H18.6089C19.0937 20.998 19.5729 20.8941 20.0142 20.6933C20.4555 20.4924 20.8486 20.1993 21.167 19.8337C21.4854 19.4681 21.7217 19.0385 21.8601 18.5738C21.9984 18.1092 22.0355 17.6202 21.9689 17.14C21.7309 15.48 20.2959 14.33 19.0169 13.713C18.6019 13.513 18.2589 13.253 18.0309 12.917L15.4479 8.47301C15.6272 8.4228 15.7815 8.30768 15.8806 8.15005C15.9797 7.99241 16.0167 7.80352 15.9843 7.62015C15.9518 7.43678 15.8523 7.27203 15.7051 7.15796C15.5579 7.04389 15.3736 6.98866 15.1879 7.00301C14.8572 7.02834 14.5292 7.03434 14.2039 7.02101C11.8439 6.92301 9.83891 5.82101 9.12991 4.03401C9.06877 3.87936 9.01734 3.72106 8.97591 3.56001ZM6.39291 5.86001L7.97991 8.60501C8.07835 8.77566 8.14222 8.96403 8.16786 9.15936C8.1935 9.35469 8.1804 9.55316 8.12933 9.74343C8.07826 9.93371 7.9902 10.1121 7.87019 10.2683C7.75019 10.4245 7.60058 10.5556 7.42991 10.654L7.04491 10.876L4.52491 9.17601C4.57691 8.47901 4.73191 7.75501 5.14791 7.09201C5.41391 6.66801 5.80591 6.24201 6.39491 5.86001M8.43691 11.814L11.2299 10.201C11.4006 10.1026 11.5889 10.0387 11.7843 10.0131C11.9796 9.98742 12.1781 10.0005 12.3683 10.0516C12.5586 10.1027 12.737 10.1907 12.8932 10.3107C13.0494 10.4307 13.1805 10.5803 13.2789 10.751L13.8029 11.658C13.9014 11.8287 13.9652 12.017 13.9909 12.2124C14.0165 12.4077 14.0034 12.6062 13.9523 12.7964C13.9013 12.9867 13.8132 13.1651 13.6932 13.3213C13.5732 13.4775 13.4236 13.6086 13.2529 13.707L12.1699 14.333L8.43691 11.814ZM16.3709 17.997H20.4629C20.3736 18.4218 20.1407 18.803 19.8034 19.0763C19.4661 19.3497 19.045 19.4986 18.6109 19.498H16.4029C15.1551 19.4982 13.9357 19.1248 12.9019 18.426L3.83391 12.294C3.74806 12.236 3.67516 12.1609 3.61978 12.0734C3.56441 11.9858 3.52777 11.8878 3.51217 11.7854C3.49658 11.683 3.50237 11.5784 3.52917 11.4784C3.55597 11.3783 3.60321 11.2849 3.66791 11.204L4.08291 10.686L13.7149 17.184C14.4995 17.7136 15.4243 17.9967 16.3709 17.997Z" fill="#0E0E1F"/>
</svg>
