<svg width="24" height="24" viewBox="0 0 24 24" fill="none" xmlns="http://www.w3.org/2000/svg">
<path d="M12 2C12.7697 1.99939 13.5343 2.12576 14.263 2.374C13.5725 3.08786 13.1375 4.01009 13.0259 4.99696C12.9143 5.98384 13.1323 6.97991 13.646 7.82993C14.1596 8.67996 14.9401 9.33618 15.8656 9.69633C16.7912 10.0565 17.8099 10.1003 18.763 9.821L19 9.743V12.527C19.0001 12.643 19.0204 12.758 19.06 12.867L19.106 12.974L20.822 16.407C20.9015 16.566 20.9413 16.7419 20.9379 16.9196C20.9346 17.0974 20.8882 17.2717 20.8028 17.4276C20.7174 17.5835 20.5955 17.7164 20.4475 17.8148C20.2994 17.9133 20.1298 17.9744 19.953 17.993L19.838 17.999H4.16197C3.98413 17.9991 3.80894 17.956 3.65139 17.8735C3.49385 17.791 3.35865 17.6715 3.25739 17.5254C3.15613 17.3792 3.09182 17.2106 3.06997 17.0341C3.04813 16.8576 3.0694 16.6785 3.13197 16.512L3.17797 16.407L4.89497 12.974C4.94658 12.8702 4.97974 12.7582 4.99297 12.643L4.99997 12.528V9C4.99997 7.14349 5.73747 5.36301 7.05022 4.05025C8.36298 2.7375 10.1435 2 12 2ZM17.5 3C18.163 3 18.7989 3.26339 19.2677 3.73224C19.7366 4.20108 20 4.83696 20 5.5C20 6.16304 19.7366 6.79893 19.2677 7.26777C18.7989 7.73661 18.163 8 17.5 8C16.8369 8 16.201 7.73661 15.7322 7.26777C15.2634 6.79893 15 6.16304 15 5.5C15 4.83696 15.2634 4.20108 15.7322 3.73224C16.201 3.26339 16.8369 3 17.5 3ZM12 21C11.3793 21.0003 10.7738 20.8081 10.267 20.4499C9.76013 20.0917 9.37685 19.5852 9.16997 19H14.83C14.6231 19.5852 14.2398 20.0917 13.733 20.4499C13.2261 20.8081 12.6206 21.0003 12 21Z" fill="#EBEBF5"/>
</svg>
