<svg width="14" height="17" viewBox="0 0 14 17" fill="none" xmlns="http://www.w3.org/2000/svg">
<path fill-rule="evenodd" clip-rule="evenodd" d="M7.67372 0.272059C8.14772 -0.296441 9.07097 0.0920589 8.99597 0.828559L8.46647 6.00206H12.7497C12.8922 6.00211 13.0318 6.04277 13.152 6.11926C13.2723 6.19576 13.3682 6.30493 13.4287 6.43399C13.4891 6.56305 13.5115 6.70666 13.4933 6.848C13.475 6.98934 13.4169 7.12256 13.3257 7.23206L5.82572 16.2321C5.35172 16.8006 4.42847 16.4121 4.50347 15.6756L5.03297 10.5021H0.749719C0.607209 10.502 0.467663 10.4613 0.347422 10.3849C0.227182 10.3084 0.131225 10.1992 0.0707869 10.0701C0.010349 9.94107 -0.0120677 9.79746 0.00616178 9.65612C0.0243913 9.51478 0.0825125 9.38156 0.173719 9.27206L7.67372 0.272059Z" fill="#00D4FF"/>
</svg>
