<svg width="50" height="50" viewBox="0 0 50 50" fill="none" xmlns="http://www.w3.org/2000/svg">
<rect width="50" height="50" rx="10" fill="url(#paint0_linear_85_727)"/>
<path fill-rule="evenodd" clip-rule="evenodd" d="M24.9981 11.875C25.2963 11.8747 25.5868 11.9691 25.8278 12.1447C26.0688 12.3203 26.2477 12.568 26.3387 12.8519L32.5 32.1063L34.9113 24.5725C35.0019 24.2885 35.1804 24.0407 35.421 23.8648C35.6616 23.6889 35.9519 23.594 36.25 23.5938H38.5938C38.9667 23.5938 39.3244 23.7419 39.5881 24.0056C39.8518 24.2694 40 24.627 40 25C40 25.373 39.8518 25.7306 39.5881 25.9944C39.3244 26.2581 38.9667 26.4063 38.5938 26.4063H37.2756L33.8387 37.1481C33.7476 37.4315 33.5689 37.6787 33.3283 37.8541C33.0877 38.0294 32.7977 38.1239 32.5 38.1239C32.2023 38.1239 31.9123 38.0294 31.6717 37.8541C31.4311 37.6787 31.2524 37.4315 31.1613 37.1481L25.0094 17.9238L20.7156 31.5175C20.627 31.7976 20.453 32.043 20.2178 32.2191C19.9827 32.3952 19.6982 32.4932 19.4045 32.4994C19.1108 32.5056 18.8225 32.4197 18.5801 32.2537C18.3378 32.0876 18.1535 31.8499 18.0531 31.5738L15.6831 25.0563L15.5519 25.4463C15.4586 25.7262 15.2797 25.9697 15.0405 26.1423C14.8013 26.3149 14.5138 26.4079 14.2188 26.4081H11.4062C11.0333 26.4081 10.6756 26.26 10.4119 25.9962C10.1482 25.7325 10 25.3748 10 25.0019C10 24.6289 10.1482 24.2712 10.4119 24.0075C10.6756 23.7438 11.0333 23.5956 11.4062 23.5956H13.2063L14.29 20.3388C14.3819 20.0613 14.5579 19.8195 14.7936 19.6467C15.0293 19.4739 15.3129 19.3789 15.6051 19.3748C15.8973 19.3706 16.1835 19.4576 16.424 19.6237C16.6644 19.7897 16.8472 20.0266 16.9469 20.3013L19.2812 26.7231L23.6594 12.8594C23.749 12.5744 23.9271 12.3253 24.1678 12.1483C24.4085 11.9713 24.6993 11.8756 24.9981 11.875Z" fill="#0E0E1F"/>
<defs>
<linearGradient id="paint0_linear_85_727" x1="25" y1="0" x2="25" y2="50" gradientUnits="userSpaceOnUse">
<stop stop-color="#00D4FF"/>
<stop offset="1" stop-color="#007F99"/>
</linearGradient>
</defs>
</svg>
