<svg width="18" height="16" viewBox="0 0 18 16" fill="none" xmlns="http://www.w3.org/2000/svg">
<path d="M13.21 0C13.8721 0 14.4932 0.123047 15.0732 0.369141C15.6533 0.615234 16.1572 0.955078 16.585 1.38867C17.0127 1.82227 17.3525 2.3291 17.6045 2.90918C17.8564 3.48926 17.9824 4.11035 17.9824 4.77246C17.9824 5.1123 17.9473 5.44922 17.877 5.7832C17.8066 6.11719 17.7012 6.43945 17.5605 6.75H13.4912L11.8037 4.99219L8.99121 7.80469L5.05371 3.86719L2.24121 6.75H0.421875C0.28125 6.43945 0.175781 6.11719 0.105469 5.7832C0.0351562 5.44922 0 5.1123 0 4.77246C0 4.11035 0.123047 3.48926 0.369141 2.90918C0.615234 2.3291 0.955078 1.8252 1.38867 1.39746C1.82227 0.969727 2.3291 0.629883 2.90918 0.37793C3.48926 0.125977 4.11035 0 4.77246 0C5.41113 0 6.02051 0.120117 6.60059 0.360352C7.18066 0.600586 7.69922 0.946289 8.15625 1.39746L8.99121 2.24121L9.82617 1.39746C10.2773 0.946289 10.793 0.600586 11.373 0.360352C11.9531 0.120117 12.5654 0 13.21 0ZM12.3662 7.875H16.8486L16.7256 8.01562C16.6846 8.0625 16.6406 8.1123 16.5938 8.16504L8.99121 15.7588L1.38867 8.16504C1.3418 8.11816 1.29785 8.07129 1.25684 8.02441C1.21582 7.97754 1.1748 7.92773 1.13379 7.875H3.36621L5.05371 6.25781L8.99121 10.1953L11.8037 7.38281L12.3662 7.875Z" fill="#00D4FF"/>
</svg>
