<svg width="25" height="24" viewBox="0 0 25 24" fill="none" xmlns="http://www.w3.org/2000/svg">
<path d="M25 20.1638C25 20.4125 24.9012 20.6509 24.7254 20.8267C24.5496 21.0025 24.3111 21.1013 24.0625 21.1013H17.6875C17.4787 21.8799 17.0189 22.5679 16.3793 23.0585C15.7397 23.5492 14.9561 23.8151 14.15 23.8151C13.3439 23.8151 12.5603 23.5492 11.9207 23.0585C11.2811 22.5679 10.8213 21.8799 10.6125 21.1013H0.9375C0.68886 21.1013 0.450403 21.0025 0.274587 20.8267C0.0987719 20.6509 0 20.4125 0 20.1638C0 19.9152 0.0987719 19.6767 0.274587 19.5009C0.450403 19.3251 0.68886 19.2263 0.9375 19.2263H10.6125C10.8213 18.4477 11.2811 17.7598 11.9207 17.2691C12.5603 16.7784 13.3439 16.5125 14.15 16.5125C14.9561 16.5125 15.7397 16.7784 16.3793 17.2691C17.0189 17.7598 17.4787 18.4477 17.6875 19.2263H24.0625C24.3111 19.2263 24.5496 19.3251 24.7254 19.5009C24.9012 19.6767 25 19.9152 25 20.1638ZM25 3.65132C25 3.89996 24.9012 4.13841 24.7254 4.31423C24.5496 4.49004 24.3111 4.58882 24.0625 4.58882H21C20.7912 5.36741 20.3314 6.05537 19.6918 6.54603C19.0522 7.03669 18.2686 7.30263 17.4625 7.30263C16.6564 7.30263 15.8728 7.03669 15.2332 6.54603C14.5936 6.05537 14.1338 5.36741 13.925 4.58882H0.9375C0.814386 4.58882 0.692477 4.56457 0.578734 4.51745C0.464992 4.47034 0.361642 4.40128 0.274587 4.31423C0.187532 4.22717 0.118477 4.12383 0.0713629 4.01008C0.0242491 3.89634 0 3.77443 0 3.65132C0 3.5282 0.0242491 3.40629 0.0713629 3.29255C0.118477 3.17881 0.187532 3.07546 0.274587 2.9884C0.361642 2.90135 0.464992 2.83229 0.578734 2.78518C0.692477 2.73807 0.814386 2.71382 0.9375 2.71382H13.925C14.1338 1.93522 14.5936 1.24726 15.2332 0.756604C15.8728 0.265946 16.6564 0 17.4625 0C18.2686 0 19.0522 0.265946 19.6918 0.756604C20.3314 1.24726 20.7912 1.93522 21 2.71382H24.0625C24.1861 2.71214 24.3087 2.73524 24.4232 2.78175C24.5377 2.82827 24.6418 2.89727 24.7292 2.98466C24.8166 3.07205 24.8855 3.17607 24.9321 3.29057C24.9786 3.40507 25.0017 3.52774 25 3.65132ZM25 11.9013C25.0017 12.0249 24.9786 12.1476 24.9321 12.2621C24.8855 12.3766 24.8166 12.4806 24.7292 12.568C24.6418 12.6554 24.5377 12.7244 24.4232 12.7709C24.3087 12.8174 24.1861 12.8405 24.0625 12.8388H9.4375C9.2287 13.6174 8.76886 14.3054 8.12928 14.796C7.4897 15.2867 6.70611 15.5526 5.9 15.5526C5.09389 15.5526 4.3103 15.2867 3.67072 14.796C3.03114 14.3054 2.5713 13.6174 2.3625 12.8388H0.9375C0.68886 12.8388 0.450403 12.74 0.274587 12.5642C0.0987719 12.3884 0 12.15 0 11.9013C0 11.6527 0.0987719 11.4142 0.274587 11.2384C0.450403 11.0626 0.68886 10.9638 0.9375 10.9638H2.3625C2.5713 10.1852 3.03114 9.49726 3.67072 9.0066C4.3103 8.51595 5.09389 8.25 5.9 8.25C6.70611 8.25 7.4897 8.51595 8.12928 9.0066C8.76886 9.49726 9.2287 10.1852 9.4375 10.9638H24.0625C24.3111 10.9638 24.5496 11.0626 24.7254 11.2384C24.9012 11.4142 25 11.6527 25 11.9013Z" fill="#00D4FF"/>
</svg>
